<svg xmlns="http://www.w3.org/2000/svg" xmlns:xlink="http://www.w3.org/1999/xlink" contentStyleType="text/css" data-diagram-type="ACTIVITY" height="488px" preserveAspectRatio="none" style="width:611px;height:488px;background:#FFFFFF;" version="1.1" viewBox="0 0 611 488" width="611px" zoomAndPan="magnify"><?plantuml 1.2026.4beta2?><defs/><g><ellipse cx="361.4927" cy="25" fill="#222222" rx="10" ry="10" style="stroke:#222222;stroke-width:1;"/><rect fill="#F1F1F1" height="33.9688" rx="12.5" ry="12.5" style="stroke:#181818;stroke-width:0.5;" width="224.8496" x="249.0679" y="55"/><text fill="#000000" font-family="sans-serif" font-size="12" lengthAdjust="spacing" textLength="204.8496" x="259.0679" y="76.1387">User enters origin and destination</text><rect fill="#F1F1F1" height="33.9688" rx="12.5" ry="12.5" style="stroke:#181818;stroke-width:0.5;" width="152.3281" x="285.3286" y="108.9688"/><text fill="#000000" font-family="sans-serif" font-size="12" lengthAdjust="spacing" textLength="132.3281" x="295.3286" y="130.1074">Validate airport codes</text><polygon fill="#F1F1F1" points="321.8459,162.9375,401.1394,162.9375,413.1394,174.9375,401.1394,186.9375,321.8459,186.9375,309.8459,174.9375,321.8459,162.9375" style="stroke:#181818;stroke-width:0.5;"/><text fill="#000000" font-family="sans-serif" font-size="11" lengthAdjust="spacing" textLength="79.2935" x="321.8459" y="178.7456">Valid airports?</text><text fill="#000000" font-family="sans-serif" font-size="11" lengthAdjust="spacing" textLength="19.0083" x="290.8376" y="172.3433">yes</text><text fill="#000000" font-family="sans-serif" font-size="11" lengthAdjust="spacing" textLength="13.7017" x="413.1394" y="172.3433">no</text><rect fill="#F1F1F1" height="33.9688" rx="12.5" ry="12.5" style="stroke:#181818;stroke-width:0.5;" width="123.7227" x="147.2314" y="196.9375"/><text fill="#000000" font-family="sans-serif" font-size="12" lengthAdjust="spacing" textLength="103.7227" x="157.2314" y="218.0762">Load route graph</text><rect fill="#F1F1F1" height="33.9688" rx="12.5" ry="12.5" style="stroke:#181818;stroke-width:0.5;" width="175.0742" x="121.5557" y="250.9063"/><text fill="#000000" font-family="sans-serif" font-size="12" lengthAdjust="spacing" textLength="155.0742" x="131.5557" y="272.0449">Apply Dijkstra's algorithm</text><polygon fill="#F1F1F1" points="176.3318,304.875,241.8538,304.875,253.8538,316.875,241.8538,328.875,176.3318,328.875,164.3318,316.875,176.3318,304.875" style="stroke:#181818;stroke-width:0.5;"/><text fill="#000000" font-family="sans-serif" font-size="11" lengthAdjust="spacing" textLength="65.522" x="176.3318" y="320.6831">Path found?</text><text fill="#000000" font-family="sans-serif" font-size="11" lengthAdjust="spacing" textLength="19.0083" x="145.3235" y="314.2808">yes</text><text fill="#000000" font-family="sans-serif" font-size="11" lengthAdjust="spacing" textLength="13.7017" x="253.8538" y="314.2808">no</text><rect fill="#F1F1F1" height="33.9688" rx="12.5" ry="12.5" style="stroke:#181818;stroke-width:0.5;" width="161.9609" x="25.5537" y="338.875"/><text fill="#000000" font-family="sans-serif" font-size="12" lengthAdjust="spacing" textLength="141.9609" x="35.5537" y="360.0137">Calculate total distance</text><rect fill="#F1F1F1" height="33.9688" rx="12.5" ry="12.5" style="stroke:#181818;stroke-width:0.5;" width="181.0684" x="16" y="392.8438"/><text fill="#000000" font-family="sans-serif" font-size="12" lengthAdjust="spacing" textLength="161.0684" x="26" y="413.9824">Display route and distance</text><ellipse cx="106.5342" cy="457.8125" fill="none" rx="11" ry="11" style="stroke:#222222;stroke-width:1;"/><ellipse cx="106.5342" cy="457.8125" fill="#222222" rx="6" ry="6" style="stroke:#222222;stroke-width:1;"/><rect fill="#F1F1F1" height="33.9688" rx="12.5" ry="12.5" style="stroke:#181818;stroke-width:0.5;" width="189.166" x="217.0684" y="338.875"/><text fill="#000000" font-family="sans-serif" font-size="12" lengthAdjust="spacing" textLength="169.166" x="227.0684" y="360.0137">Display "No route available"</text><ellipse cx="311.6514" cy="403.8438" fill="none" rx="11" ry="11" style="stroke:#222222;stroke-width:1;"/><ellipse cx="311.6514" cy="403.8438" fill="#222222" rx="6" ry="6" style="stroke:#222222;stroke-width:1;"/><rect fill="#F1F1F1" height="33.9688" rx="12.5" ry="12.5" style="stroke:#181818;stroke-width:0.5;" width="155.3164" x="436.2344" y="196.9375"/><text fill="#000000" font-family="sans-serif" font-size="12" lengthAdjust="spacing" textLength="135.3164" x="446.2344" y="218.0762">Display error message</text><ellipse cx="513.8926" cy="261.9063" fill="none" rx="11" ry="11" style="stroke:#222222;stroke-width:1;"/><ellipse cx="513.8926" cy="261.9063" fill="#222222" rx="6" ry="6" style="stroke:#222222;stroke-width:1;"/><line style="stroke:#181818;stroke-width:1;" x1="361.4927" x2="361.4927" y1="35" y2="55"/><polygon fill="#181818" points="357.4927,45,361.4927,55,365.4927,45,361.4927,49" style="stroke:#181818;stroke-width:1;"/><line style="stroke:#181818;stroke-width:1;" x1="361.4927" x2="361.4927" y1="88.9688" y2="108.9688"/><polygon fill="#181818" points="357.4927,98.9688,361.4927,108.9688,365.4927,98.9688,361.4927,102.9688" style="stroke:#181818;stroke-width:1;"/><line style="stroke:#181818;stroke-width:1;" x1="209.0928" x2="209.0928" y1="230.9063" y2="250.9063"/><polygon fill="#181818" points="205.0928,240.9063,209.0928,250.9063,213.0928,240.9063,209.0928,244.9063" style="stroke:#181818;stroke-width:1;"/><line style="stroke:#181818;stroke-width:1;" x1="106.5342" x2="106.5342" y1="372.8438" y2="392.8438"/><polygon fill="#181818" points="102.5342,382.8438,106.5342,392.8438,110.5342,382.8438,106.5342,386.8438" style="stroke:#181818;stroke-width:1;"/><line style="stroke:#181818;stroke-width:1;" x1="106.5342" x2="106.5342" y1="426.8125" y2="446.8125"/><polygon fill="#181818" points="102.5342,436.8125,106.5342,446.8125,110.5342,436.8125,106.5342,440.8125" style="stroke:#181818;stroke-width:1;"/><line style="stroke:#181818;stroke-width:1;" x1="311.6514" x2="311.6514" y1="372.8438" y2="392.8438"/><polygon fill="#181818" points="307.6514,382.8438,311.6514,392.8438,315.6514,382.8438,311.6514,386.8438" style="stroke:#181818;stroke-width:1;"/><line style="stroke:#181818;stroke-width:1;" x1="164.3318" x2="106.5342" y1="316.875" y2="316.875"/><line style="stroke:#181818;stroke-width:1;" x1="106.5342" x2="106.5342" y1="316.875" y2="338.875"/><polygon fill="#181818" points="102.5342,328.875,106.5342,338.875,110.5342,328.875,106.5342,332.875" style="stroke:#181818;stroke-width:1;"/><line style="stroke:#181818;stroke-width:1;" x1="253.8538" x2="311.6514" y1="316.875" y2="316.875"/><line style="stroke:#181818;stroke-width:1;" x1="311.6514" x2="311.6514" y1="316.875" y2="338.875"/><polygon fill="#181818" points="307.6514,328.875,311.6514,338.875,315.6514,328.875,311.6514,332.875" style="stroke:#181818;stroke-width:1;"/><line style="stroke:#181818;stroke-width:1;" x1="209.0928" x2="209.0928" y1="284.875" y2="304.875"/><polygon fill="#181818" points="205.0928,294.875,209.0928,304.875,213.0928,294.875,209.0928,298.875" style="stroke:#181818;stroke-width:1;"/><line style="stroke:#181818;stroke-width:1;" x1="513.8926" x2="513.8926" y1="230.9063" y2="250.9063"/><polygon fill="#181818" points="509.8926,240.9063,513.8926,250.9063,517.8926,240.9063,513.8926,244.9063" style="stroke:#181818;stroke-width:1;"/><line style="stroke:#181818;stroke-width:1;" x1="309.8459" x2="209.0928" y1="174.9375" y2="174.9375"/><line style="stroke:#181818;stroke-width:1;" x1="209.0928" x2="209.0928" y1="174.9375" y2="196.9375"/><polygon fill="#181818" points="205.0928,186.9375,209.0928,196.9375,213.0928,186.9375,209.0928,190.9375" style="stroke:#181818;stroke-width:1;"/><line style="stroke:#181818;stroke-width:1;" x1="413.1394" x2="513.8926" y1="174.9375" y2="174.9375"/><line style="stroke:#181818;stroke-width:1;" x1="513.8926" x2="513.8926" y1="174.9375" y2="196.9375"/><polygon fill="#181818" points="509.8926,186.9375,513.8926,196.9375,517.8926,186.9375,513.8926,190.9375" style="stroke:#181818;stroke-width:1;"/><line style="stroke:#181818;stroke-width:1;" x1="361.4927" x2="361.4927" y1="142.9375" y2="162.9375"/><polygon fill="#181818" points="357.4927,152.9375,361.4927,162.9375,365.4927,152.9375,361.4927,156.9375" style="stroke:#181818;stroke-width:1;"/><?plantuml-src NO_1JiGm34Jl_GfhBxI_i3si47j4YCjozpPkQyZ6aUqYzUz90uieaW-HPzwCOuxgJNEy62bGSb83KPuu0QO0WSmveREalhZUC7909q3MBEemI74KXKTegtXNxDI1pvIWNScw1k3uB1X0PIdqf9ZdVbi-vXnNEFFxXxdYWm76gTJxVDlaCblmA_eCeomf_0yj2KyOXoLkDxauHWXiZccW_bi-i-M8wqzn_TBEO2wvF2WQGPkasrE75xcJdyWHhv4EUou57fk_z2zBgg9m8pESQbb5Al05?></g></svg>