<svg xmlns="http://www.w3.org/2000/svg" xmlns:xlink="http://www.w3.org/1999/xlink" contentStyleType="text/css" data-diagram-type="ACTIVITY" height="732px" preserveAspectRatio="none" style="width:1190px;height:732px;background:#FFFFFF;" version="1.1" viewBox="0 0 1190 732" width="1190px" zoomAndPan="magnify"><?plantuml 1.2026.4beta2?><defs/><g><rect fill="none" height="20.9531" style="stroke:none;stroke-width:1;" width="1143.542" x="20" y="17.7451"/><ellipse cx="91.3184" cy="53.6982" fill="#222222" rx="10" ry="10" style="stroke:#222222;stroke-width:1;"/><rect fill="#F1F1F1" height="33.9688" rx="12.5" ry="12.5" style="stroke:#181818;stroke-width:0.5;" width="130.6367" x="26" y="83.6982"/><text fill="#000000" font-family="sans-serif" font-size="12" lengthAdjust="spacing" textLength="110.6367" x="36" y="104.8369">Enter flight details</text><line style="stroke:#000000;stroke-width:1.5;" x1="20" x2="20" y1="17.7451" y2="711.417"/><rect fill="#F1F1F1" height="33.9688" rx="12.5" ry="12.5" style="stroke:#181818;stroke-width:0.5;" width="134.8145" x="397.2478" y="137.667"/><text fill="#000000" font-family="sans-serif" font-size="12" lengthAdjust="spacing" textLength="114.8145" x="407.2478" y="158.8057">Validate input data</text><polygon fill="#F1F1F1" points="432.5735,191.6357,496.7366,191.6357,508.7366,203.6357,496.7366,215.6357,432.5735,215.6357,420.5735,203.6357,432.5735,191.6357" style="stroke:#181818;stroke-width:0.5;"/><text fill="#000000" font-family="sans-serif" font-size="11" lengthAdjust="spacing" textLength="64.1631" x="432.5735" y="207.4438">Input valid?</text><text fill="#000000" font-family="sans-serif" font-size="11" lengthAdjust="spacing" textLength="19.0083" x="401.5652" y="201.0415">yes</text><text fill="#000000" font-family="sans-serif" font-size="11" lengthAdjust="spacing" textLength="13.7017" x="508.7366" y="201.0415">no</text><rect fill="#F1F1F1" height="33.9688" rx="12.5" ry="12.5" style="stroke:#181818;stroke-width:0.5;" width="145.127" x="166.6367" y="333.6045"/><text fill="#000000" font-family="sans-serif" font-size="12" lengthAdjust="spacing" textLength="125.127" x="176.6367" y="354.7432">Display conflict error</text><ellipse cx="239.2002" cy="398.5732" fill="none" rx="11" ry="11" style="stroke:#222222;stroke-width:1;"/><ellipse cx="239.2002" cy="398.5732" fill="#222222" rx="6" ry="6" style="stroke:#222222;stroke-width:1;"/><rect fill="#F1F1F1" height="33.9688" rx="12.5" ry="12.5" style="stroke:#181818;stroke-width:0.5;" width="172.7305" x="321.7637" y="603.4482"/><text fill="#000000" font-family="sans-serif" font-size="12" lengthAdjust="spacing" textLength="152.7305" x="331.7637" y="624.5869">Display success message</text><ellipse cx="408.1289" cy="668.417" fill="none" rx="11" ry="11" style="stroke:#222222;stroke-width:1;"/><ellipse cx="408.1289" cy="668.417" fill="#222222" rx="6" ry="6" style="stroke:#222222;stroke-width:1;"/><rect fill="#F1F1F1" height="33.9688" rx="12.5" ry="12.5" style="stroke:#181818;stroke-width:0.5;" width="160.4668" x="536.3301" y="235.6357"/><text fill="#000000" font-family="sans-serif" font-size="12" lengthAdjust="spacing" textLength="140.4668" x="546.3301" y="256.7744">Display validation error</text><ellipse cx="616.5635" cy="300.6045" fill="none" rx="11" ry="11" style="stroke:#222222;stroke-width:1;"/><ellipse cx="616.5635" cy="300.6045" fill="#222222" rx="6" ry="6" style="stroke:#222222;stroke-width:1;"/><line style="stroke:#000000;stroke-width:1.5;" x1="160.6367" x2="160.6367" y1="17.7451" y2="711.417"/><rect fill="#F1F1F1" height="33.9688" rx="12.5" ry="12.5" style="stroke:#181818;stroke-width:0.5;" width="168.3125" x="706.7969" y="235.6357"/><text fill="#000000" font-family="sans-serif" font-size="12" lengthAdjust="spacing" textLength="148.3125" x="716.7969" y="256.7744">Check schedule conflicts</text><polygon fill="#F1F1F1" points="749.3674,289.6045,832.5388,289.6045,844.5388,301.6045,832.5388,313.6045,749.3674,313.6045,737.3674,301.6045,749.3674,289.6045" style="stroke:#181818;stroke-width:0.5;"/><text fill="#000000" font-family="sans-serif" font-size="11" lengthAdjust="spacing" textLength="83.1714" x="749.3674" y="305.4126">Conflict exists?</text><text fill="#000000" font-family="sans-serif" font-size="11" lengthAdjust="spacing" textLength="19.0083" x="718.3591" y="299.0103">yes</text><text fill="#000000" font-family="sans-serif" font-size="11" lengthAdjust="spacing" textLength="13.7017" x="844.5388" y="299.0103">no</text><rect fill="#F1F1F1" height="33.9688" rx="12.5" ry="12.5" style="stroke:#181818;stroke-width:0.5;" width="196.4023" x="788.1343" y="549.4795"/><text fill="#000000" font-family="sans-serif" font-size="12" lengthAdjust="spacing" textLength="176.4023" x="798.1343" y="570.6182">Save operation to undo stack</text><line style="stroke:#000000;stroke-width:1.5;" x1="700.7969" x2="700.7969" y1="17.7451" y2="711.417"/><rect fill="#F1F1F1" height="33.9688" rx="12.5" ry="12.5" style="stroke:#181818;stroke-width:0.5;" width="124.625" x="1013.7964" y="333.6045"/><text fill="#000000" font-family="sans-serif" font-size="12" lengthAdjust="spacing" textLength="104.625" x="1023.7964" y="354.7432">Insert into B-Tree</text><rect fill="#F1F1F1" height="33.9688" rx="12.5" ry="12.5" style="stroke:#181818;stroke-width:0.5;" width="138.9805" x="1006.6187" y="387.5732"/><text fill="#000000" font-family="sans-serif" font-size="12" lengthAdjust="spacing" textLength="118.9805" x="1016.6187" y="408.7119">Insert into AVL Tree</text><rect fill="#F1F1F1" height="33.9688" rx="12.5" ry="12.5" style="stroke:#181818;stroke-width:0.5;" width="163.1445" x="994.5366" y="441.542"/><text fill="#000000" font-family="sans-serif" font-size="12" lengthAdjust="spacing" textLength="143.1445" x="1004.5366" y="462.6807">Insert into Priority Heap</text><rect fill="#F1F1F1" height="33.9688" rx="12.5" ry="12.5" style="stroke:#181818;stroke-width:0.5;" width="152.0996" x="1000.0591" y="495.5107"/><text fill="#000000" font-family="sans-serif" font-size="12" lengthAdjust="spacing" textLength="132.0996" x="1010.0591" y="516.6494">Insert into Hash Table</text><line style="stroke:#000000;stroke-width:1.5;" x1="988.5366" x2="988.5366" y1="17.7451" y2="711.417"/><line style="stroke:#000000;stroke-width:1.5;" x1="1161.6812" x2="1161.6812" y1="17.7451" y2="711.417"/><line style="stroke:#181818;stroke-width:1;" x1="91.3184" x2="91.3184" y1="63.6982" y2="83.6982"/><polygon fill="#181818" points="87.3184,73.6982,91.3184,83.6982,95.3184,73.6982,91.3184,77.6982" style="stroke:#181818;stroke-width:1;"/><line style="stroke:#181818;stroke-width:1;" x1="239.2002" x2="239.2002" y1="367.5732" y2="387.5732"/><polygon fill="#181818" points="235.2002,377.5732,239.2002,387.5732,243.2002,377.5732,239.2002,381.5732" style="stroke:#181818;stroke-width:1;"/><line style="stroke:#181818;stroke-width:1;" x1="408.1289" x2="408.1289" y1="637.417" y2="657.417"/><polygon fill="#181818" points="404.1289,647.417,408.1289,657.417,412.1289,647.417,408.1289,651.417" style="stroke:#181818;stroke-width:1;"/><line style="stroke:#181818;stroke-width:1;" x1="616.5635" x2="616.5635" y1="269.6045" y2="289.6045"/><polygon fill="#181818" points="612.5635,279.6045,616.5635,289.6045,620.5635,279.6045,616.5635,283.6045" style="stroke:#181818;stroke-width:1;"/><line style="stroke:#181818;stroke-width:1;" x1="508.7366" x2="616.5635" y1="203.6357" y2="203.6357"/><line style="stroke:#181818;stroke-width:1;" x1="616.5635" x2="616.5635" y1="203.6357" y2="235.6357"/><polygon fill="#181818" points="612.5635,225.6357,616.5635,235.6357,620.5635,225.6357,616.5635,229.6357" style="stroke:#181818;stroke-width:1;"/><line style="stroke:#181818;stroke-width:1;" x1="464.655" x2="464.655" y1="171.6357" y2="191.6357"/><polygon fill="#181818" points="460.655,181.6357,464.655,191.6357,468.655,181.6357,464.655,185.6357" style="stroke:#181818;stroke-width:1;"/><line style="stroke:#181818;stroke-width:1;" x1="790.9531" x2="790.9531" y1="269.6045" y2="289.6045"/><polygon fill="#181818" points="786.9531,279.6045,790.9531,289.6045,794.9531,279.6045,790.9531,283.6045" style="stroke:#181818;stroke-width:1;"/><line style="stroke:#181818;stroke-width:1;" x1="1076.1089" x2="1076.1089" y1="367.5732" y2="387.5732"/><polygon fill="#181818" points="1072.1089,377.5732,1076.1089,387.5732,1080.1089,377.5732,1076.1089,381.5732" style="stroke:#181818;stroke-width:1;"/><line style="stroke:#181818;stroke-width:1;" x1="1076.1089" x2="1076.1089" y1="421.542" y2="441.542"/><polygon fill="#181818" points="1072.1089,431.542,1076.1089,441.542,1080.1089,431.542,1076.1089,435.542" style="stroke:#181818;stroke-width:1;"/><line style="stroke:#181818;stroke-width:1;" x1="1076.1089" x2="1076.1089" y1="475.5107" y2="495.5107"/><polygon fill="#181818" points="1072.1089,485.5107,1076.1089,495.5107,1080.1089,485.5107,1076.1089,489.5107" style="stroke:#181818;stroke-width:1;"/><line style="stroke:#181818;stroke-width:1;" x1="91.3184" x2="91.3184" y1="117.667" y2="122.667"/><line style="stroke:#181818;stroke-width:1;" x1="91.3184" x2="464.655" y1="122.667" y2="122.667"/><line style="stroke:#181818;stroke-width:1;" x1="464.655" x2="464.655" y1="122.667" y2="137.667"/><polygon fill="#181818" points="460.655,127.667,464.655,137.667,468.655,127.667,464.655,131.667" style="stroke:#181818;stroke-width:1;"/><line style="stroke:#181818;stroke-width:1;" x1="1076.1089" x2="1076.1089" y1="529.4795" y2="534.4795"/><line style="stroke:#181818;stroke-width:1;" x1="1076.1089" x2="886.3354" y1="534.4795" y2="534.4795"/><line style="stroke:#181818;stroke-width:1;" x1="886.3354" x2="886.3354" y1="534.4795" y2="549.4795"/><polygon fill="#181818" points="882.3354,539.4795,886.3354,549.4795,890.3354,539.4795,886.3354,543.4795" style="stroke:#181818;stroke-width:1;"/><line style="stroke:#181818;stroke-width:1;" x1="886.3354" x2="886.3354" y1="583.4482" y2="588.4482"/><line style="stroke:#181818;stroke-width:1;" x1="886.3354" x2="408.1289" y1="588.4482" y2="588.4482"/><line style="stroke:#181818;stroke-width:1;" x1="408.1289" x2="408.1289" y1="588.4482" y2="603.4482"/><polygon fill="#181818" points="404.1289,593.4482,408.1289,603.4482,412.1289,593.4482,408.1289,597.4482" style="stroke:#181818;stroke-width:1;"/><line style="stroke:#181818;stroke-width:1;" x1="737.3674" x2="239.2002" y1="301.6045" y2="301.6045"/><line style="stroke:#181818;stroke-width:1;" x1="239.2002" x2="239.2002" y1="301.6045" y2="333.6045"/><polygon fill="#181818" points="235.2002,323.6045,239.2002,333.6045,243.2002,323.6045,239.2002,327.6045" style="stroke:#181818;stroke-width:1;"/><line style="stroke:#181818;stroke-width:1;" x1="844.5388" x2="1076.1089" y1="301.6045" y2="301.6045"/><line style="stroke:#181818;stroke-width:1;" x1="1076.1089" x2="1076.1089" y1="301.6045" y2="333.6045"/><polygon fill="#181818" points="1072.1089,323.6045,1076.1089,333.6045,1080.1089,323.6045,1076.1089,327.6045" style="stroke:#181818;stroke-width:1;"/><line style="stroke:#181818;stroke-width:1;" x1="420.5735" x2="408.5735" y1="203.6357" y2="203.6357"/><line style="stroke:#181818;stroke-width:1;" x1="408.5735" x2="408.5735" y1="203.6357" y2="221.6357"/><line style="stroke:#181818;stroke-width:1;" x1="408.5735" x2="790.9531" y1="221.6357" y2="221.6357"/><line style="stroke:#181818;stroke-width:1;" x1="790.9531" x2="790.9531" y1="221.6357" y2="235.6357"/><polygon fill="#181818" points="786.9531,225.6357,790.9531,235.6357,794.9531,225.6357,790.9531,229.6357" style="stroke:#181818;stroke-width:1;"/><text fill="#000000" font-family="sans-serif" font-size="18" lengthAdjust="spacing" textLength="109.5205" x="35.5581" y="34.4531">Airport Staff</text><text fill="#000000" font-family="sans-serif" font-size="18" lengthAdjust="spacing" textLength="100.749" x="380.3423" y="34.4531">CLI System</text><text fill="#000000" font-family="sans-serif" font-size="18" lengthAdjust="spacing" textLength="134.8682" x="777.2327" y="34.4531">Flight Manager</text><text fill="#000000" font-family="sans-serif" font-size="18" lengthAdjust="spacing" textLength="142.207" x="1004.0054" y="34.4531">Data Structures</text><?plantuml-src XP71Ri8m38RlUGeVuR0NQ0yJWqrKOjAa8kvUwjA8a5IsMwrI7tufCBJ1fbro-7_xi_rdN3Xk8okKYdKz6b5aDTbpK6AelTit2XKfEY-vCUDoKq0vYD9nDDaElQjG2LnekrI6Ygd6rJ0hJa8_-Ozpq8O2p0QIkJ40uykP-ee1zyHZah9bG_O0OXkgEazWOqYZhKuZ0IRWyg80VJXHkOCcxFVL9Y5REMaz3bSQ47Fa_6IAndRg8oy4in2_8AjqGug2EwiTarn8HH1A4RcW4PuUjaoKtnkBtGR-iDxOHNOwm9gm_SLVepImnNTF-MMF-unIIuazGMo9KLqCa1gxKCLq2zf3_byAqbbB8d1CJsBUn10gLnlp8uqRr1NKdtzzsk0Qw9bpedm2?></g></svg>