<svg xmlns="http://www.w3.org/2000/svg" xmlns:xlink="http://www.w3.org/1999/xlink" contentStyleType="text/css" data-diagram-type="ACTIVITY" height="650px" preserveAspectRatio="none" style="width:574px;height:650px;background:#FFFFFF;" version="1.1" viewBox="0 0 574 650" width="574px" zoomAndPan="magnify"><?plantuml 1.2026.4beta2?><defs/><g><ellipse cx="329.9751" cy="25" fill="#222222" rx="10" ry="10" style="stroke:#222222;stroke-width:1;"/><rect fill="#F1F1F1" height="33.9688" rx="12.5" ry="12.5" style="stroke:#181818;stroke-width:0.5;" width="167.8555" x="246.0474" y="55"/><text fill="#000000" font-family="sans-serif" font-size="12" lengthAdjust="spacing" textLength="147.8555" x="256.0474" y="76.1387">User enters flight details</text><rect fill="#F1F1F1" height="33.9688" rx="12.5" ry="12.5" style="stroke:#181818;stroke-width:0.5;" width="134.8145" x="262.5679" y="108.9688"/><text fill="#000000" font-family="sans-serif" font-size="12" lengthAdjust="spacing" textLength="114.8145" x="272.5679" y="130.1074">Validate input data</text><polygon fill="#F1F1F1" points="297.8936,162.9375,362.0566,162.9375,374.0566,174.9375,362.0566,186.9375,297.8936,186.9375,285.8936,174.9375,297.8936,162.9375" style="stroke:#181818;stroke-width:0.5;"/><text fill="#000000" font-family="sans-serif" font-size="11" lengthAdjust="spacing" textLength="64.1631" x="297.8936" y="178.7456">Input valid?</text><text fill="#000000" font-family="sans-serif" font-size="11" lengthAdjust="spacing" textLength="19.0083" x="266.8853" y="172.3433">yes</text><text fill="#000000" font-family="sans-serif" font-size="11" lengthAdjust="spacing" textLength="13.7017" x="374.0566" y="172.3433">no</text><rect fill="#F1F1F1" height="33.9688" rx="12.5" ry="12.5" style="stroke:#181818;stroke-width:0.5;" width="203.3809" x="83.9795" y="196.9375"/><text fill="#000000" font-family="sans-serif" font-size="12" lengthAdjust="spacing" textLength="183.3809" x="93.9795" y="218.0762">Check for conflicts in schedule</text><polygon fill="#F1F1F1" points="144.0842,250.9063,227.2556,250.9063,239.2556,262.9063,227.2556,274.9063,144.0842,274.9063,132.0842,262.9063,144.0842,250.9063" style="stroke:#181818;stroke-width:0.5;"/><text fill="#000000" font-family="sans-serif" font-size="11" lengthAdjust="spacing" textLength="83.1714" x="144.0842" y="266.7144">Conflict exists?</text><text fill="#000000" font-family="sans-serif" font-size="11" lengthAdjust="spacing" textLength="19.0083" x="113.0759" y="260.312">yes</text><text fill="#000000" font-family="sans-serif" font-size="11" lengthAdjust="spacing" textLength="13.7017" x="239.2556" y="260.312">no</text><rect fill="#F1F1F1" height="33.9688" rx="12.5" ry="12.5" style="stroke:#181818;stroke-width:0.5;" width="155.3164" x="16" y="284.9063"/><text fill="#000000" font-family="sans-serif" font-size="12" lengthAdjust="spacing" textLength="135.3164" x="26" y="306.0449">Display error message</text><ellipse cx="93.6582" cy="349.875" fill="none" rx="11" ry="11" style="stroke:#222222;stroke-width:1;"/><ellipse cx="93.6582" cy="349.875" fill="#222222" rx="6" ry="6" style="stroke:#222222;stroke-width:1;"/><rect fill="#F1F1F1" height="33.9688" rx="12.5" ry="12.5" style="stroke:#181818;stroke-width:0.5;" width="124.625" x="215.3691" y="284.9063"/><text fill="#000000" font-family="sans-serif" font-size="12" lengthAdjust="spacing" textLength="104.625" x="225.3691" y="306.0449">Insert into B-Tree</text><rect fill="#F1F1F1" height="33.9688" rx="12.5" ry="12.5" style="stroke:#181818;stroke-width:0.5;" width="138.9805" x="208.1914" y="338.875"/><text fill="#000000" font-family="sans-serif" font-size="12" lengthAdjust="spacing" textLength="118.9805" x="218.1914" y="360.0137">Insert into AVL Tree</text><rect fill="#F1F1F1" height="33.9688" rx="12.5" ry="12.5" style="stroke:#181818;stroke-width:0.5;" width="163.1445" x="196.1094" y="392.8438"/><text fill="#000000" font-family="sans-serif" font-size="12" lengthAdjust="spacing" textLength="143.1445" x="206.1094" y="413.9824">Insert into Priority Heap</text><rect fill="#F1F1F1" height="33.9688" rx="12.5" ry="12.5" style="stroke:#181818;stroke-width:0.5;" width="152.0996" x="201.6318" y="446.8125"/><text fill="#000000" font-family="sans-serif" font-size="12" lengthAdjust="spacing" textLength="132.0996" x="211.6318" y="467.9512">Insert into Hash Table</text><rect fill="#F1F1F1" height="33.9688" rx="12.5" ry="12.5" style="stroke:#181818;stroke-width:0.5;" width="134.9727" x="210.1953" y="500.7813"/><text fill="#000000" font-family="sans-serif" font-size="12" lengthAdjust="spacing" textLength="114.9727" x="220.1953" y="521.9199">Save to undo stack</text><rect fill="#F1F1F1" height="33.9688" rx="12.5" ry="12.5" style="stroke:#181818;stroke-width:0.5;" width="172.7305" x="191.3164" y="554.75"/><text fill="#000000" font-family="sans-serif" font-size="12" lengthAdjust="spacing" textLength="152.7305" x="201.3164" y="575.8887">Display success message</text><ellipse cx="277.6816" cy="619.7188" fill="none" rx="11" ry="11" style="stroke:#222222;stroke-width:1;"/><ellipse cx="277.6816" cy="619.7188" fill="#222222" rx="6" ry="6" style="stroke:#222222;stroke-width:1;"/><rect fill="#F1F1F1" height="33.9688" rx="12.5" ry="12.5" style="stroke:#181818;stroke-width:0.5;" width="160.4668" x="394.0469" y="196.9375"/><text fill="#000000" font-family="sans-serif" font-size="12" lengthAdjust="spacing" textLength="140.4668" x="404.0469" y="218.0762">Display validation error</text><ellipse cx="474.2803" cy="261.9063" fill="none" rx="11" ry="11" style="stroke:#222222;stroke-width:1;"/><ellipse cx="474.2803" cy="261.9063" fill="#222222" rx="6" ry="6" style="stroke:#222222;stroke-width:1;"/><line style="stroke:#181818;stroke-width:1;" x1="329.9751" x2="329.9751" y1="35" y2="55"/><polygon fill="#181818" points="325.9751,45,329.9751,55,333.9751,45,329.9751,49" style="stroke:#181818;stroke-width:1;"/><line style="stroke:#181818;stroke-width:1;" x1="329.9751" x2="329.9751" y1="88.9688" y2="108.9688"/><polygon fill="#181818" points="325.9751,98.9688,329.9751,108.9688,333.9751,98.9688,329.9751,102.9688" style="stroke:#181818;stroke-width:1;"/><line style="stroke:#181818;stroke-width:1;" x1="93.6582" x2="93.6582" y1="318.875" y2="338.875"/><polygon fill="#181818" points="89.6582,328.875,93.6582,338.875,97.6582,328.875,93.6582,332.875" style="stroke:#181818;stroke-width:1;"/><line style="stroke:#181818;stroke-width:1;" x1="277.6816" x2="277.6816" y1="318.875" y2="338.875"/><polygon fill="#181818" points="273.6816,328.875,277.6816,338.875,281.6816,328.875,277.6816,332.875" style="stroke:#181818;stroke-width:1;"/><line style="stroke:#181818;stroke-width:1;" x1="277.6816" x2="277.6816" y1="372.8438" y2="392.8438"/><polygon fill="#181818" points="273.6816,382.8438,277.6816,392.8438,281.6816,382.8438,277.6816,386.8438" style="stroke:#181818;stroke-width:1;"/><line style="stroke:#181818;stroke-width:1;" x1="277.6816" x2="277.6816" y1="426.8125" y2="446.8125"/><polygon fill="#181818" points="273.6816,436.8125,277.6816,446.8125,281.6816,436.8125,277.6816,440.8125" style="stroke:#181818;stroke-width:1;"/><line style="stroke:#181818;stroke-width:1;" x1="277.6816" x2="277.6816" y1="480.7813" y2="500.7813"/><polygon fill="#181818" points="273.6816,490.7813,277.6816,500.7813,281.6816,490.7813,277.6816,494.7813" style="stroke:#181818;stroke-width:1;"/><line style="stroke:#181818;stroke-width:1;" x1="277.6816" x2="277.6816" y1="534.75" y2="554.75"/><polygon fill="#181818" points="273.6816,544.75,277.6816,554.75,281.6816,544.75,277.6816,548.75" style="stroke:#181818;stroke-width:1;"/><line style="stroke:#181818;stroke-width:1;" x1="277.6816" x2="277.6816" y1="588.7188" y2="608.7188"/><polygon fill="#181818" points="273.6816,598.7188,277.6816,608.7188,281.6816,598.7188,277.6816,602.7188" style="stroke:#181818;stroke-width:1;"/><line style="stroke:#181818;stroke-width:1;" x1="132.0842" x2="93.6582" y1="262.9063" y2="262.9063"/><line style="stroke:#181818;stroke-width:1;" x1="93.6582" x2="93.6582" y1="262.9063" y2="284.9063"/><polygon fill="#181818" points="89.6582,274.9063,93.6582,284.9063,97.6582,274.9063,93.6582,278.9063" style="stroke:#181818;stroke-width:1;"/><line style="stroke:#181818;stroke-width:1;" x1="239.2556" x2="277.6816" y1="262.9063" y2="262.9063"/><line style="stroke:#181818;stroke-width:1;" x1="277.6816" x2="277.6816" y1="262.9063" y2="284.9063"/><polygon fill="#181818" points="273.6816,274.9063,277.6816,284.9063,281.6816,274.9063,277.6816,278.9063" style="stroke:#181818;stroke-width:1;"/><line style="stroke:#181818;stroke-width:1;" x1="185.6699" x2="185.6699" y1="230.9063" y2="250.9063"/><polygon fill="#181818" points="181.6699,240.9063,185.6699,250.9063,189.6699,240.9063,185.6699,244.9063" style="stroke:#181818;stroke-width:1;"/><line style="stroke:#181818;stroke-width:1;" x1="474.2803" x2="474.2803" y1="230.9063" y2="250.9063"/><polygon fill="#181818" points="470.2803,240.9063,474.2803,250.9063,478.2803,240.9063,474.2803,244.9063" style="stroke:#181818;stroke-width:1;"/><line style="stroke:#181818;stroke-width:1;" x1="285.8936" x2="185.6699" y1="174.9375" y2="174.9375"/><line style="stroke:#181818;stroke-width:1;" x1="185.6699" x2="185.6699" y1="174.9375" y2="196.9375"/><polygon fill="#181818" points="181.6699,186.9375,185.6699,196.9375,189.6699,186.9375,185.6699,190.9375" style="stroke:#181818;stroke-width:1;"/><line style="stroke:#181818;stroke-width:1;" x1="374.0566" x2="474.2803" y1="174.9375" y2="174.9375"/><line style="stroke:#181818;stroke-width:1;" x1="474.2803" x2="474.2803" y1="174.9375" y2="196.9375"/><polygon fill="#181818" points="470.2803,186.9375,474.2803,196.9375,478.2803,186.9375,474.2803,190.9375" style="stroke:#181818;stroke-width:1;"/><line style="stroke:#181818;stroke-width:1;" x1="329.9751" x2="329.9751" y1="142.9375" y2="162.9375"/><polygon fill="#181818" points="325.9751,152.9375,329.9751,162.9375,333.9751,152.9375,329.9751,156.9375" style="stroke:#181818;stroke-width:1;"/><?plantuml-src TP31JiCm44Jl-OevfWT-e3cWKWwjn069jlV5sJHMZHrvDn7vUpPfG1GLoGThtyvungAKjIZMH-4CZifPq0H_RXKrA_aWbT4J1L-JCdpiUYEaP6FVeDpFWs7YZojeon7boB8gWFMsPNT1ap9SYcRgLCm0ubgk-y2LxTYPNBOB1tzwKVdhP5xFNhf08pXdy_jW4JhF3e1ewkp2GHXbJ8jW7wsHsdkQyFHmoBnitu3DwGN_eDViK_OwOiVKtU4xaXO7UW_VuZSQ60RwM2VBHEvItKQNtZdBVJzyh7rJ_Axm8nkkV-zJl9QVTBDgrdm1?></g></svg>