<svg xmlns="http://www.w3.org/2000/svg" xmlns:xlink="http://www.w3.org/1999/xlink" contentStyleType="text/css" data-diagram-type="ACTIVITY" height="570px" preserveAspectRatio="none" style="width:1128px;height:570px;background:#FFFFFF;" version="1.1" viewBox="0 0 1128 570" width="1128px" zoomAndPan="magnify"><?plantuml 1.2026.4beta2?><defs/><g><rect fill="none" height="20.9531" style="stroke:none;stroke-width:1;" width="1081.1265" x="20" y="17.7451"/><ellipse cx="119.8154" cy="53.6982" fill="#222222" rx="10" ry="10" style="stroke:#222222;stroke-width:1;"/><rect fill="#F1F1F1" height="33.9688" rx="12.5" ry="12.5" style="stroke:#181818;stroke-width:0.5;" width="187.6309" x="26" y="83.6982"/><text fill="#000000" font-family="sans-serif" font-size="12" lengthAdjust="spacing" textLength="167.6309" x="36" y="104.8369">Enter origin and destination</text><line style="stroke:#000000;stroke-width:1.5;" x1="20" x2="20" y1="17.7451" y2="549.5107"/><rect fill="#F1F1F1" height="33.9688" rx="12.5" ry="12.5" style="stroke:#181818;stroke-width:0.5;" width="152.3281" x="490.4053" y="137.667"/><text fill="#000000" font-family="sans-serif" font-size="12" lengthAdjust="spacing" textLength="132.3281" x="500.4053" y="158.8057">Validate airport codes</text><polygon fill="#F1F1F1" points="526.9226,191.6357,606.2161,191.6357,618.2161,203.6357,606.2161,215.6357,526.9226,215.6357,514.9226,203.6357,526.9226,191.6357" style="stroke:#181818;stroke-width:0.5;"/><text fill="#000000" font-family="sans-serif" font-size="11" lengthAdjust="spacing" textLength="79.2935" x="526.9226" y="207.4438">Valid airports?</text><text fill="#000000" font-family="sans-serif" font-size="11" lengthAdjust="spacing" textLength="19.0083" x="495.9143" y="201.0415">yes</text><text fill="#000000" font-family="sans-serif" font-size="11" lengthAdjust="spacing" textLength="13.7017" x="618.2161" y="201.0415">no</text><rect fill="#F1F1F1" height="33.9688" rx="12.5" ry="12.5" style="stroke:#181818;stroke-width:0.5;" width="181.0684" x="223.6309" y="441.542"/><text fill="#000000" font-family="sans-serif" font-size="12" lengthAdjust="spacing" textLength="161.0684" x="233.6309" y="462.6807">Display route and distance</text><ellipse cx="314.165" cy="506.5107" fill="none" rx="11" ry="11" style="stroke:#222222;stroke-width:1;"/><ellipse cx="314.165" cy="506.5107" fill="#222222" rx="6" ry="6" style="stroke:#222222;stroke-width:1;"/><rect fill="#F1F1F1" height="33.9688" rx="12.5" ry="12.5" style="stroke:#181818;stroke-width:0.5;" width="189.166" x="414.6992" y="387.5732"/><text fill="#000000" font-family="sans-serif" font-size="12" lengthAdjust="spacing" textLength="169.166" x="424.6992" y="408.7119">Display "No route available"</text><ellipse cx="509.2822" cy="452.542" fill="none" rx="11" ry="11" style="stroke:#222222;stroke-width:1;"/><ellipse cx="509.2822" cy="452.542" fill="#222222" rx="6" ry="6" style="stroke:#222222;stroke-width:1;"/><rect fill="#F1F1F1" height="33.9688" rx="12.5" ry="12.5" style="stroke:#181818;stroke-width:0.5;" width="185.0996" x="633.8652" y="235.6357"/><text fill="#000000" font-family="sans-serif" font-size="12" lengthAdjust="spacing" textLength="165.0996" x="643.8652" y="256.7744">Display invalid airport error</text><ellipse cx="726.415" cy="300.6045" fill="none" rx="11" ry="11" style="stroke:#222222;stroke-width:1;"/><ellipse cx="726.415" cy="300.6045" fill="#222222" rx="6" ry="6" style="stroke:#222222;stroke-width:1;"/><line style="stroke:#000000;stroke-width:1.5;" x1="217.6309" x2="217.6309" y1="17.7451" y2="549.5107"/><rect fill="#F1F1F1" height="33.9688" rx="12.5" ry="12.5" style="stroke:#181818;stroke-width:0.5;" width="123.7227" x="950.6426" y="235.6357"/><text fill="#000000" font-family="sans-serif" font-size="12" lengthAdjust="spacing" textLength="103.7227" x="960.6426" y="256.7744">Load route graph</text><rect fill="#F1F1F1" height="33.9688" rx="12.5" ry="12.5" style="stroke:#181818;stroke-width:0.5;" width="165.5234" x="929.7422" y="289.6045"/><text fill="#000000" font-family="sans-serif" font-size="12" lengthAdjust="spacing" textLength="145.5234" x="939.7422" y="310.7432">Apply Dijkstra algorithm</text><polygon fill="#F1F1F1" points="979.7429,343.5732,1045.2649,343.5732,1057.2649,355.5732,1045.2649,367.5732,979.7429,367.5732,967.7429,355.5732,979.7429,343.5732" style="stroke:#181818;stroke-width:0.5;"/><text fill="#000000" font-family="sans-serif" font-size="11" lengthAdjust="spacing" textLength="65.522" x="979.7429" y="359.3813">Path found?</text><text fill="#000000" font-family="sans-serif" font-size="11" lengthAdjust="spacing" textLength="19.0083" x="948.7346" y="352.979">yes</text><text fill="#000000" font-family="sans-serif" font-size="11" lengthAdjust="spacing" textLength="13.7017" x="1057.2649" y="352.979">no</text><rect fill="#F1F1F1" height="33.9688" rx="12.5" ry="12.5" style="stroke:#181818;stroke-width:0.5;" width="161.9609" x="828.9648" y="387.5732"/><text fill="#000000" font-family="sans-serif" font-size="12" lengthAdjust="spacing" textLength="141.9609" x="838.9648" y="408.7119">Calculate total distance</text><line style="stroke:#000000;stroke-width:1.5;" x1="822.9648" x2="822.9648" y1="17.7451" y2="549.5107"/><line style="stroke:#000000;stroke-width:1.5;" x1="1099.2656" x2="1099.2656" y1="17.7451" y2="549.5107"/><line style="stroke:#181818;stroke-width:1;" x1="119.8154" x2="119.8154" y1="63.6982" y2="83.6982"/><polygon fill="#181818" points="115.8154,73.6982,119.8154,83.6982,123.8154,73.6982,119.8154,77.6982" style="stroke:#181818;stroke-width:1;"/><line style="stroke:#181818;stroke-width:1;" x1="314.165" x2="314.165" y1="475.5107" y2="495.5107"/><polygon fill="#181818" points="310.165,485.5107,314.165,495.5107,318.165,485.5107,314.165,489.5107" style="stroke:#181818;stroke-width:1;"/><line style="stroke:#181818;stroke-width:1;" x1="509.2822" x2="509.2822" y1="421.542" y2="441.542"/><polygon fill="#181818" points="505.2822,431.542,509.2822,441.542,513.2822,431.542,509.2822,435.542" style="stroke:#181818;stroke-width:1;"/><line style="stroke:#181818;stroke-width:1;" x1="726.415" x2="726.415" y1="269.6045" y2="289.6045"/><polygon fill="#181818" points="722.415,279.6045,726.415,289.6045,730.415,279.6045,726.415,283.6045" style="stroke:#181818;stroke-width:1;"/><line style="stroke:#181818;stroke-width:1;" x1="618.2161" x2="726.415" y1="203.6357" y2="203.6357"/><line style="stroke:#181818;stroke-width:1;" x1="726.415" x2="726.415" y1="203.6357" y2="235.6357"/><polygon fill="#181818" points="722.415,225.6357,726.415,235.6357,730.415,225.6357,726.415,229.6357" style="stroke:#181818;stroke-width:1;"/><line style="stroke:#181818;stroke-width:1;" x1="566.5693" x2="566.5693" y1="171.6357" y2="191.6357"/><polygon fill="#181818" points="562.5693,181.6357,566.5693,191.6357,570.5693,181.6357,566.5693,185.6357" style="stroke:#181818;stroke-width:1;"/><line style="stroke:#181818;stroke-width:1;" x1="1012.5039" x2="1012.5039" y1="269.6045" y2="289.6045"/><polygon fill="#181818" points="1008.5039,279.6045,1012.5039,289.6045,1016.5039,279.6045,1012.5039,283.6045" style="stroke:#181818;stroke-width:1;"/><line style="stroke:#181818;stroke-width:1;" x1="967.7429" x2="909.9453" y1="355.5732" y2="355.5732"/><line style="stroke:#181818;stroke-width:1;" x1="909.9453" x2="909.9453" y1="355.5732" y2="387.5732"/><polygon fill="#181818" points="905.9453,377.5732,909.9453,387.5732,913.9453,377.5732,909.9453,381.5732" style="stroke:#181818;stroke-width:1;"/><line style="stroke:#181818;stroke-width:1;" x1="1012.5039" x2="1012.5039" y1="323.5732" y2="343.5732"/><polygon fill="#181818" points="1008.5039,333.5732,1012.5039,343.5732,1016.5039,333.5732,1012.5039,337.5732" style="stroke:#181818;stroke-width:1;"/><line style="stroke:#181818;stroke-width:1;" x1="119.8154" x2="119.8154" y1="117.667" y2="122.667"/><line style="stroke:#181818;stroke-width:1;" x1="119.8154" x2="566.5693" y1="122.667" y2="122.667"/><line style="stroke:#181818;stroke-width:1;" x1="566.5693" x2="566.5693" y1="122.667" y2="137.667"/><polygon fill="#181818" points="562.5693,127.667,566.5693,137.667,570.5693,127.667,566.5693,131.667" style="stroke:#181818;stroke-width:1;"/><line style="stroke:#181818;stroke-width:1;" x1="909.9453" x2="909.9453" y1="421.542" y2="426.542"/><line style="stroke:#181818;stroke-width:1;" x1="909.9453" x2="314.165" y1="426.542" y2="426.542"/><line style="stroke:#181818;stroke-width:1;" x1="314.165" x2="314.165" y1="426.542" y2="441.542"/><polygon fill="#181818" points="310.165,431.542,314.165,441.542,318.165,431.542,314.165,435.542" style="stroke:#181818;stroke-width:1;"/><line style="stroke:#181818;stroke-width:1;" x1="1057.2649" x2="1069.2649" y1="355.5732" y2="355.5732"/><line style="stroke:#181818;stroke-width:1;" x1="1069.2649" x2="1069.2649" y1="355.5732" y2="373.5732"/><line style="stroke:#181818;stroke-width:1;" x1="1069.2649" x2="509.2822" y1="373.5732" y2="373.5732"/><line style="stroke:#181818;stroke-width:1;" x1="509.2822" x2="509.2822" y1="373.5732" y2="387.5732"/><polygon fill="#181818" points="505.2822,377.5732,509.2822,387.5732,513.2822,377.5732,509.2822,381.5732" style="stroke:#181818;stroke-width:1;"/><line style="stroke:#181818;stroke-width:1;" x1="514.9226" x2="502.9226" y1="203.6357" y2="203.6357"/><line style="stroke:#181818;stroke-width:1;" x1="502.9226" x2="502.9226" y1="203.6357" y2="221.6357"/><line style="stroke:#181818;stroke-width:1;" x1="502.9226" x2="1012.5039" y1="221.6357" y2="221.6357"/><line style="stroke:#181818;stroke-width:1;" x1="1012.5039" x2="1012.5039" y1="221.6357" y2="235.6357"/><polygon fill="#181818" points="1008.5039,225.6357,1012.5039,235.6357,1016.5039,225.6357,1012.5039,229.6357" style="stroke:#181818;stroke-width:1;"/><text fill="#000000" font-family="sans-serif" font-size="18" lengthAdjust="spacing" textLength="109.5205" x="64.0552" y="34.4531">Airport Staff</text><text fill="#000000" font-family="sans-serif" font-size="18" lengthAdjust="spacing" textLength="100.749" x="469.9233" y="34.4531">CLI System</text><text fill="#000000" font-family="sans-serif" font-size="18" lengthAdjust="spacing" textLength="185.168" x="868.5313" y="34.4531">Route Graph Module</text><?plantuml-src XP3DQiCm48JlUeeb9_iLx4C9IIc5j9G6UjzQihsjeXNIEc3GmrToVcZIGwyxCz_ERbfJy1m4ze9zdrGK3AAQHoSc00SQo04w3Tf48OT2x5gbqcRt3FivYZaarNoW9OrY0C-iZhCzswY7QX4lIdoeGKRZe9fDh9K2IEyyvUHJG3_22-l9cfJ7pOvHGrYqeMXj6QwzjpDiwUixIa10E-I6CXxQGYhBtb16w7bo-i-Y7D-WxIPRYWeBMj2KhtMTQK_wpL5BO4lHMvpFFPOtN2F548LzoHeR3LIEw_z0grU-m8v85Z-jMTsXdAPUgHlY7UzA8tVy_Lmm8N0ek1DiGVq0?></g></svg>