<svg xmlns="http://www.w3.org/2000/svg" xmlns:xlink="http://www.w3.org/1999/xlink" contentStyleType="text/css" data-diagram-type="CLASS" height="792px" preserveAspectRatio="none" style="width:2273px;height:792px;background:#FFFFFF;" version="1.1" viewBox="0 0 2273 792" width="2273px" zoomAndPan="magnify"><?plantuml 1.2026.4beta2?><defs/><g><!--class Flight--><g class="entity" data-qualified-name="Flight" data-source-line="1" id="ent0002"><rect fill="#F1F1F1" height="259.8594" rx="2.5" ry="2.5" style="stroke:#181818;stroke-width:0.5;" width="296.4297" x="1113.86" y="294.97"/><ellipse cx="1238.2843" cy="310.97" fill="#ADD1B2" rx="11" ry="11" style="stroke:#181818;stroke-width:1;"/><path d="M1241.2531,316.6106 Q1240.6749,316.9075 1240.0343,317.0481 Q1239.3937,317.2044 1238.6906,317.2044 Q1236.1906,317.2044 1234.8624,315.5637 Q1233.5499,313.9075 1233.5499,310.7825 Q1233.5499,307.6575 1234.8624,306.0012 Q1236.1906,304.345 1238.6906,304.345 Q1239.3937,304.345 1240.0343,304.5012 Q1240.6906,304.6575 1241.2531,304.9544 L1241.2531,307.6731 Q1240.6281,307.095 1240.0343,306.8294 Q1239.4406,306.5481 1238.8156,306.5481 Q1237.4718,306.5481 1236.7843,307.6262 Q1236.0968,308.6887 1236.0968,310.7825 Q1236.0968,312.8762 1236.7843,313.9544 Q1237.4718,315.0169 1238.8156,315.0169 Q1239.4406,315.0169 1240.0343,314.7512 Q1240.6281,314.47 1241.2531,313.8919 L1241.2531,316.6106 Z " fill="#000000"/><text fill="#000000" font-family="sans-serif" font-size="14" lengthAdjust="spacing" textLength="39.0811" x="1258.7843" y="315.8167">Flight</text><line style="stroke:#181818;stroke-width:0.5;" x1="1114.86" x2="1409.2897" y1="326.97" y2="326.97"/><g data-visibility-modifier="PRIVATE_FIELD"><rect fill="none" height="6" style="stroke:#C82930;stroke-width:1;" width="6" x="1121.86" y="337.6184"/></g><text fill="#000000" font-family="sans-serif" font-size="14" lengthAdjust="spacing" textLength="141.5518" x="1133.86" y="343.9651">flightNumber: string</text><g data-visibility-modifier="PRIVATE_FIELD"><rect fill="none" height="6" style="stroke:#C82930;stroke-width:1;" width="6" x="1121.86" y="353.9153"/></g><text fill="#000000" font-family="sans-serif" font-size="14" lengthAdjust="spacing" textLength="89.2158" x="1133.86" y="360.262">origin: string</text><g data-visibility-modifier="PRIVATE_FIELD"><rect fill="none" height="6" style="stroke:#C82930;stroke-width:1;" width="6" x="1121.86" y="370.2122"/></g><text fill="#000000" font-family="sans-serif" font-size="14" lengthAdjust="spacing" textLength="127.7979" x="1133.86" y="376.5589">destination: string</text><g data-visibility-modifier="PRIVATE_FIELD"><rect fill="none" height="6" style="stroke:#C82930;stroke-width:1;" width="6" x="1121.86" y="386.5091"/></g><text fill="#000000" font-family="sans-serif" font-size="14" lengthAdjust="spacing" textLength="181.4668" x="1133.86" y="392.8557">departureTime: DateTime</text><g data-visibility-modifier="PRIVATE_FIELD"><rect fill="none" height="6" style="stroke:#C82930;stroke-width:1;" width="6" x="1121.86" y="402.8059"/></g><text fill="#000000" font-family="sans-serif" font-size="14" lengthAdjust="spacing" textLength="156.748" x="1133.86" y="409.1526">arrivalTime: DateTime</text><g data-visibility-modifier="PRIVATE_FIELD"><rect fill="none" height="6" style="stroke:#C82930;stroke-width:1;" width="6" x="1121.86" y="419.1028"/></g><text fill="#000000" font-family="sans-serif" font-size="14" lengthAdjust="spacing" textLength="77.9365" x="1133.86" y="425.4495">priority: int</text><g data-visibility-modifier="PRIVATE_FIELD"><rect fill="none" height="6" style="stroke:#C82930;stroke-width:1;" width="6" x="1121.86" y="435.3997"/></g><text fill="#000000" font-family="sans-serif" font-size="14" lengthAdjust="spacing" textLength="135.8779" x="1133.86" y="441.7464">status: FlightStatus</text><line style="stroke:#181818;stroke-width:0.5;" x1="1114.86" x2="1409.2897" y1="449.0481" y2="449.0481"/><g data-visibility-modifier="PUBLIC_METHOD"><ellipse cx="1124.86" cy="462.6966" fill="#84BE84" rx="3" ry="3" style="stroke:#038048;stroke-width:1;"/></g><text fill="#000000" font-family="sans-serif" font-size="14" lengthAdjust="spacing" textLength="50.0049" x="1133.86" y="466.0432">Flight()</text><g data-visibility-modifier="PUBLIC_METHOD"><ellipse cx="1124.86" cy="478.9934" fill="#84BE84" rx="3" ry="3" style="stroke:#038048;stroke-width:1;"/></g><text fill="#000000" font-family="sans-serif" font-size="14" lengthAdjust="spacing" textLength="178.5889" x="1133.86" y="482.3401">getFlightNumber(): string</text><g data-visibility-modifier="PUBLIC_METHOD"><ellipse cx="1124.86" cy="495.2903" fill="#84BE84" rx="3" ry="3" style="stroke:#038048;stroke-width:1;"/></g><text fill="#000000" font-family="sans-serif" font-size="14" lengthAdjust="spacing" textLength="270.4297" x="1133.86" y="498.637">setFlightNumber(number: string): void</text><g data-visibility-modifier="PUBLIC_METHOD"><ellipse cx="1124.86" cy="511.5872" fill="#84BE84" rx="3" ry="3" style="stroke:#038048;stroke-width:1;"/></g><text fill="#000000" font-family="sans-serif" font-size="14" lengthAdjust="spacing" textLength="111.4053" x="1133.86" y="514.9339">getPriority(): int</text><g data-visibility-modifier="PUBLIC_METHOD"><ellipse cx="1124.86" cy="527.8841" fill="#84BE84" rx="3" ry="3" style="stroke:#038048;stroke-width:1;"/></g><text fill="#000000" font-family="sans-serif" font-size="14" lengthAdjust="spacing" textLength="106.21" x="1133.86" y="531.2307">validate(): bool</text><g data-visibility-modifier="PUBLIC_METHOD"><ellipse cx="1124.86" cy="544.1809" fill="#84BE84" rx="3" ry="3" style="stroke:#038048;stroke-width:1;"/></g><text fill="#000000" font-family="sans-serif" font-size="14" lengthAdjust="spacing" textLength="202.7402" x="1133.86" y="547.5276">compareTo(other: Flight): int</text></g><!--class Airport--><g class="entity" data-qualified-name="Airport" data-source-line="17" id="ent0003"><rect fill="#F1F1F1" height="194.6719" rx="2.5" ry="2.5" style="stroke:#181818;stroke-width:0.5;" width="320.0068" x="1526.07" y="327.57"/><ellipse cx="1657.8635" cy="343.57" fill="#ADD1B2" rx="11" ry="11" style="stroke:#181818;stroke-width:1;"/><path d="M1660.8322,349.2106 Q1660.2541,349.5075 1659.6135,349.6481 Q1658.9728,349.8044 1658.2697,349.8044 Q1655.7697,349.8044 1654.4416,348.1638 Q1653.1291,346.5075 1653.1291,343.3825 Q1653.1291,340.2575 1654.4416,338.6013 Q1655.7697,336.945 1658.2697,336.945 Q1658.9728,336.945 1659.6135,337.1013 Q1660.2697,337.2575 1660.8322,337.5544 L1660.8322,340.2731 Q1660.2072,339.695 1659.6135,339.4294 Q1659.0197,339.1481 1658.3947,339.1481 Q1657.051,339.1481 1656.3635,340.2263 Q1655.676,341.2888 1655.676,343.3825 Q1655.676,345.4763 1656.3635,346.5544 Q1657.051,347.6169 1658.3947,347.6169 Q1659.0197,347.6169 1659.6135,347.3513 Q1660.2072,347.07 1660.8322,346.4919 L1660.8322,349.2106 Z " fill="#000000"/><text fill="#000000" font-family="sans-serif" font-size="14" lengthAdjust="spacing" textLength="47.9199" x="1678.3635" y="348.4167">Airport</text><line style="stroke:#181818;stroke-width:0.5;" x1="1527.07" x2="1845.0768" y1="359.57" y2="359.57"/><g data-visibility-modifier="PRIVATE_FIELD"><rect fill="none" height="6" style="stroke:#C82930;stroke-width:1;" width="6" x="1534.07" y="370.2184"/></g><text fill="#000000" font-family="sans-serif" font-size="14" lengthAdjust="spacing" textLength="83.1182" x="1546.07" y="376.5651">code: string</text><g data-visibility-modifier="PRIVATE_FIELD"><rect fill="none" height="6" style="stroke:#C82930;stroke-width:1;" width="6" x="1534.07" y="386.5153"/></g><text fill="#000000" font-family="sans-serif" font-size="14" lengthAdjust="spacing" textLength="89.0586" x="1546.07" y="392.862">name: string</text><g data-visibility-modifier="PRIVATE_FIELD"><rect fill="none" height="6" style="stroke:#C82930;stroke-width:1;" width="6" x="1534.07" y="402.8122"/></g><text fill="#000000" font-family="sans-serif" font-size="14" lengthAdjust="spacing" textLength="104.9043" x="1546.07" y="409.1589">location: string</text><g data-visibility-modifier="PRIVATE_FIELD"><rect fill="none" height="6" style="stroke:#C82930;stroke-width:1;" width="6" x="1534.07" y="419.1091"/></g><text fill="#000000" font-family="sans-serif" font-size="14" lengthAdjust="spacing" textLength="191.9326" x="1546.07" y="425.4557">runways: vector&lt;Runway&gt;</text><line style="stroke:#181818;stroke-width:0.5;" x1="1527.07" x2="1845.0768" y1="432.7575" y2="432.7575"/><g data-visibility-modifier="PUBLIC_METHOD"><ellipse cx="1537.07" cy="446.4059" fill="#84BE84" rx="3" ry="3" style="stroke:#038048;stroke-width:1;"/></g><text fill="#000000" font-family="sans-serif" font-size="14" lengthAdjust="spacing" textLength="58.8438" x="1546.07" y="449.7526">Airport()</text><g data-visibility-modifier="PUBLIC_METHOD"><ellipse cx="1537.07" cy="462.7028" fill="#84BE84" rx="3" ry="3" style="stroke:#038048;stroke-width:1;"/></g><text fill="#000000" font-family="sans-serif" font-size="14" lengthAdjust="spacing" textLength="119.1094" x="1546.07" y="466.0495">getCode(): string</text><g data-visibility-modifier="PUBLIC_METHOD"><ellipse cx="1537.07" cy="478.9997" fill="#84BE84" rx="3" ry="3" style="stroke:#038048;stroke-width:1;"/></g><text fill="#000000" font-family="sans-serif" font-size="14" lengthAdjust="spacing" textLength="124.5713" x="1546.07" y="482.3464">getName(): string</text><g data-visibility-modifier="PUBLIC_METHOD"><ellipse cx="1537.07" cy="495.2966" fill="#84BE84" rx="3" ry="3" style="stroke:#038048;stroke-width:1;"/></g><text fill="#000000" font-family="sans-serif" font-size="14" lengthAdjust="spacing" textLength="248.6299" x="1546.07" y="498.6432">addRunway(runway: Runway): void</text><g data-visibility-modifier="PUBLIC_METHOD"><ellipse cx="1537.07" cy="511.5934" fill="#84BE84" rx="3" ry="3" style="stroke:#038048;stroke-width:1;"/></g><text fill="#000000" font-family="sans-serif" font-size="14" lengthAdjust="spacing" textLength="294.0068" x="1546.07" y="514.9401">getAvailableRunways(): vector&lt;Runway&gt;</text></g><!--class Runway--><g class="entity" data-qualified-name="Runway" data-source-line="29" id="ent0004"><rect fill="#F1F1F1" height="162.0781" rx="2.5" ry="2.5" style="stroke:#181818;stroke-width:0.5;" width="215.5059" x="1578.32" y="615.83"/><ellipse cx="1653.9289" cy="631.83" fill="#ADD1B2" rx="11" ry="11" style="stroke:#181818;stroke-width:1;"/><path d="M1656.8976,637.4706 Q1656.3195,637.7675 1655.6789,637.9081 Q1655.0383,638.0644 1654.3351,638.0644 Q1651.8351,638.0644 1650.507,636.4237 Q1649.1945,634.7675 1649.1945,631.6425 Q1649.1945,628.5175 1650.507,626.8612 Q1651.8351,625.205 1654.3351,625.205 Q1655.0383,625.205 1655.6789,625.3612 Q1656.3351,625.5175 1656.8976,625.8144 L1656.8976,628.5331 Q1656.2726,627.955 1655.6789,627.6894 Q1655.0851,627.4081 1654.4601,627.4081 Q1653.1164,627.4081 1652.4289,628.4862 Q1651.7414,629.5487 1651.7414,631.6425 Q1651.7414,633.7362 1652.4289,634.8144 Q1653.1164,635.8769 1654.4601,635.8769 Q1655.0851,635.8769 1655.6789,635.6112 Q1656.2726,635.33 1656.8976,634.7519 L1656.8976,637.4706 Z " fill="#000000"/><text fill="#000000" font-family="sans-serif" font-size="14" lengthAdjust="spacing" textLength="55.7881" x="1674.4289" y="636.6767">Runway</text><line style="stroke:#181818;stroke-width:0.5;" x1="1579.32" x2="1792.8259" y1="647.83" y2="647.83"/><g data-visibility-modifier="PRIVATE_FIELD"><rect fill="none" height="6" style="stroke:#C82930;stroke-width:1;" width="6" x="1586.32" y="658.4784"/></g><text fill="#000000" font-family="sans-serif" font-size="14" lengthAdjust="spacing" textLength="116.0811" x="1598.32" y="664.8251">runwayID: string</text><g data-visibility-modifier="PRIVATE_FIELD"><rect fill="none" height="6" style="stroke:#C82930;stroke-width:1;" width="6" x="1586.32" y="674.7753"/></g><text fill="#000000" font-family="sans-serif" font-size="14" lengthAdjust="spacing" textLength="114.4473" x="1598.32" y="681.122">isAvailable: bool</text><g data-visibility-modifier="PRIVATE_FIELD"><rect fill="none" height="6" style="stroke:#C82930;stroke-width:1;" width="6" x="1586.32" y="691.0722"/></g><text fill="#000000" font-family="sans-serif" font-size="14" lengthAdjust="spacing" textLength="158.5186" x="1598.32" y="697.4189">allocatedFlight: Flight*</text><line style="stroke:#181818;stroke-width:0.5;" x1="1579.32" x2="1792.8259" y1="704.7206" y2="704.7206"/><g data-visibility-modifier="PUBLIC_METHOD"><ellipse cx="1589.32" cy="718.3691" fill="#84BE84" rx="3" ry="3" style="stroke:#038048;stroke-width:1;"/></g><text fill="#000000" font-family="sans-serif" font-size="14" lengthAdjust="spacing" textLength="66.7119" x="1598.32" y="721.7157">Runway()</text><g data-visibility-modifier="PUBLIC_METHOD"><ellipse cx="1589.32" cy="734.6659" fill="#84BE84" rx="3" ry="3" style="stroke:#038048;stroke-width:1;"/></g><text fill="#000000" font-family="sans-serif" font-size="14" lengthAdjust="spacing" textLength="189.5059" x="1598.32" y="738.0126">allocate(flight: Flight): bool</text><g data-visibility-modifier="PUBLIC_METHOD"><ellipse cx="1589.32" cy="750.9628" fill="#84BE84" rx="3" ry="3" style="stroke:#038048;stroke-width:1;"/></g><text fill="#000000" font-family="sans-serif" font-size="14" lengthAdjust="spacing" textLength="101.0762" x="1598.32" y="754.3095">release(): void</text><g data-visibility-modifier="PUBLIC_METHOD"><ellipse cx="1589.32" cy="767.2597" fill="#84BE84" rx="3" ry="3" style="stroke:#038048;stroke-width:1;"/></g><text fill="#000000" font-family="sans-serif" font-size="14" lengthAdjust="spacing" textLength="168.1162" x="1598.32" y="770.6064">checkAvailability(): bool</text></g><!--class FlightManager--><g class="entity" data-qualified-name="FlightManager" data-source-line="39" id="ent0005"><rect fill="#F1F1F1" height="210.9688" rx="2.5" ry="2.5" style="stroke:#181818;stroke-width:0.5;" width="337.958" x="536.1" y="7"/><ellipse cx="650.6054" cy="23" fill="#ADD1B2" rx="11" ry="11" style="stroke:#181818;stroke-width:1;"/><path d="M653.5741,28.6406 Q652.996,28.9375 652.3554,29.0781 Q651.7147,29.2344 651.0116,29.2344 Q648.5116,29.2344 647.1835,27.5938 Q645.871,25.9375 645.871,22.8125 Q645.871,19.6875 647.1835,18.0313 Q648.5116,16.375 651.0116,16.375 Q651.7147,16.375 652.3554,16.5313 Q653.0116,16.6875 653.5741,16.9844 L653.5741,19.7031 Q652.9491,19.125 652.3554,18.8594 Q651.7616,18.5781 651.1366,18.5781 Q649.7929,18.5781 649.1054,19.6563 Q648.4179,20.7188 648.4179,22.8125 Q648.4179,24.9063 649.1054,25.9844 Q649.7929,27.0469 651.1366,27.0469 Q651.7616,27.0469 652.3554,26.7813 Q652.9491,26.5 653.5741,25.9219 L653.5741,28.6406 Z " fill="#000000"/><text fill="#000000" font-family="sans-serif" font-size="14" lengthAdjust="spacing" textLength="100.4473" x="671.1054" y="27.8467">FlightManager</text><line style="stroke:#181818;stroke-width:0.5;" x1="537.1" x2="873.058" y1="39" y2="39"/><g data-visibility-modifier="PRIVATE_FIELD"><rect fill="none" height="6" style="stroke:#C82930;stroke-width:1;" width="6" x="544.1" y="49.6484"/></g><text fill="#000000" font-family="sans-serif" font-size="14" lengthAdjust="spacing" textLength="156.0986" x="556.1" y="55.9951">flights: BTree&lt;Flight&gt;</text><g data-visibility-modifier="PRIVATE_FIELD"><rect fill="none" height="6" style="stroke:#C82930;stroke-width:1;" width="6" x="544.1" y="65.9453"/></g><text fill="#000000" font-family="sans-serif" font-size="14" lengthAdjust="spacing" textLength="192.9375" x="556.1" y="72.292">schedule: AVLTree&lt;Flight&gt;</text><g data-visibility-modifier="PRIVATE_FIELD"><rect fill="none" height="6" style="stroke:#C82930;stroke-width:1;" width="6" x="544.1" y="82.2422"/></g><text fill="#000000" font-family="sans-serif" font-size="14" lengthAdjust="spacing" textLength="204.8252" x="556.1" y="88.5889">priorityQueue: Heap&lt;Flight&gt;</text><g data-visibility-modifier="PRIVATE_FIELD"><rect fill="none" height="6" style="stroke:#C82930;stroke-width:1;" width="6" x="544.1" y="98.5391"/></g><text fill="#000000" font-family="sans-serif" font-size="14" lengthAdjust="spacing" textLength="269.3359" x="556.1" y="104.8857">flightIndex: HashTable&lt;string, Flight&gt;</text><line style="stroke:#181818;stroke-width:0.5;" x1="537.1" x2="873.058" y1="112.1875" y2="112.1875"/><g data-visibility-modifier="PUBLIC_METHOD"><ellipse cx="547.1" cy="125.8359" fill="#84BE84" rx="3" ry="3" style="stroke:#038048;stroke-width:1;"/></g><text fill="#000000" font-family="sans-serif" font-size="14" lengthAdjust="spacing" textLength="111.3711" x="556.1" y="129.1826">FlightManager()</text><g data-visibility-modifier="PUBLIC_METHOD"><ellipse cx="547.1" cy="142.1328" fill="#84BE84" rx="3" ry="3" style="stroke:#038048;stroke-width:1;"/></g><text fill="#000000" font-family="sans-serif" font-size="14" lengthAdjust="spacing" textLength="199.6367" x="556.1" y="145.4795">addFlight(flight: Flight): bool</text><g data-visibility-modifier="PUBLIC_METHOD"><ellipse cx="547.1" cy="158.4297" fill="#84BE84" rx="3" ry="3" style="stroke:#038048;stroke-width:1;"/></g><text fill="#000000" font-family="sans-serif" font-size="14" lengthAdjust="spacing" textLength="275.9805" x="556.1" y="161.7764">cancelFlight(flightNumber: string): bool</text><g data-visibility-modifier="PUBLIC_METHOD"><ellipse cx="547.1" cy="174.7266" fill="#84BE84" rx="3" ry="3" style="stroke:#038048;stroke-width:1;"/></g><text fill="#000000" font-family="sans-serif" font-size="14" lengthAdjust="spacing" textLength="311.958" x="556.1" y="178.0732">searchFlight(criteria: string): vector&lt;Flight&gt;</text><g data-visibility-modifier="PUBLIC_METHOD"><ellipse cx="547.1" cy="191.0234" fill="#84BE84" rx="3" ry="3" style="stroke:#038048;stroke-width:1;"/></g><text fill="#000000" font-family="sans-serif" font-size="14" lengthAdjust="spacing" textLength="214.3613" x="556.1" y="194.3701">getSchedule(): vector&lt;Flight&gt;</text><g data-visibility-modifier="PUBLIC_METHOD"><ellipse cx="547.1" cy="207.3203" fill="#84BE84" rx="3" ry="3" style="stroke:#038048;stroke-width:1;"/></g><text fill="#000000" font-family="sans-serif" font-size="14" lengthAdjust="spacing" textLength="222.6123" x="556.1" y="210.667">updateFlight(flight: Flight): bool</text></g><!--class RouteGraph--><g class="entity" data-qualified-name="RouteGraph" data-source-line="52" id="ent0006"><rect fill="#F1F1F1" height="178.375" rx="2.5" ry="2.5" style="stroke:#181818;stroke-width:0.5;" width="392.7207" x="1489.72" y="23.3"/><ellipse cx="1639.7244" cy="39.3" fill="#ADD1B2" rx="11" ry="11" style="stroke:#181818;stroke-width:1;"/><path d="M1642.6931,44.9406 Q1642.115,45.2375 1641.4744,45.3781 Q1640.8338,45.5344 1640.1306,45.5344 Q1637.6306,45.5344 1636.3025,43.8937 Q1634.99,42.2375 1634.99,39.1125 Q1634.99,35.9875 1636.3025,34.3312 Q1637.6306,32.675 1640.1306,32.675 Q1640.8338,32.675 1641.4744,32.8312 Q1642.1306,32.9875 1642.6931,33.2844 L1642.6931,36.0031 Q1642.0681,35.425 1641.4744,35.1594 Q1640.8806,34.8781 1640.2556,34.8781 Q1638.9119,34.8781 1638.2244,35.9562 Q1637.5369,37.0187 1637.5369,39.1125 Q1637.5369,41.2062 1638.2244,42.2844 Q1638.9119,43.3469 1640.2556,43.3469 Q1640.8806,43.3469 1641.4744,43.0812 Q1642.0681,42.8 1642.6931,42.2219 L1642.6931,44.9406 Z " fill="#000000"/><text fill="#000000" font-family="sans-serif" font-size="14" lengthAdjust="spacing" textLength="84.2119" x="1660.2244" y="44.1467">RouteGraph</text><line style="stroke:#181818;stroke-width:0.5;" x1="1490.72" x2="1881.4407" y1="55.3" y2="55.3"/><g data-visibility-modifier="PRIVATE_FIELD"><rect fill="none" height="6" style="stroke:#C82930;stroke-width:1;" width="6" x="1497.72" y="65.9484"/></g><text fill="#000000" font-family="sans-serif" font-size="14" lengthAdjust="spacing" textLength="311.4932" x="1509.72" y="72.2951">adjacencyList: map&lt;string, vector&lt;Edge&gt;&gt;</text><g data-visibility-modifier="PRIVATE_FIELD"><rect fill="none" height="6" style="stroke:#C82930;stroke-width:1;" width="6" x="1497.72" y="82.2453"/></g><text fill="#000000" font-family="sans-serif" font-size="14" lengthAdjust="spacing" textLength="179.1699" x="1509.72" y="88.592">airports: vector&lt;Airport&gt;</text><line style="stroke:#181818;stroke-width:0.5;" x1="1490.72" x2="1881.4407" y1="95.8937" y2="95.8937"/><g data-visibility-modifier="PUBLIC_METHOD"><ellipse cx="1500.72" cy="109.5422" fill="#84BE84" rx="3" ry="3" style="stroke:#038048;stroke-width:1;"/></g><text fill="#000000" font-family="sans-serif" font-size="14" lengthAdjust="spacing" textLength="95.1357" x="1509.72" y="112.8889">RouteGraph()</text><g data-visibility-modifier="PUBLIC_METHOD"><ellipse cx="1500.72" cy="125.8391" fill="#84BE84" rx="3" ry="3" style="stroke:#038048;stroke-width:1;"/></g><text fill="#000000" font-family="sans-serif" font-size="14" lengthAdjust="spacing" textLength="366.7207" x="1509.72" y="129.1857">addRoute(from: string, to: string, cost: double): void</text><g data-visibility-modifier="PUBLIC_METHOD"><ellipse cx="1500.72" cy="142.1359" fill="#84BE84" rx="3" ry="3" style="stroke:#038048;stroke-width:1;"/></g><text fill="#000000" font-family="sans-serif" font-size="14" lengthAdjust="spacing" textLength="346.1582" x="1509.72" y="145.4826">findShortestPath(origin: string, dest: string): Path</text><g data-visibility-modifier="PUBLIC_METHOD"><ellipse cx="1500.72" cy="158.4328" fill="#84BE84" rx="3" ry="3" style="stroke:#038048;stroke-width:1;"/></g><text fill="#000000" font-family="sans-serif" font-size="14" lengthAdjust="spacing" textLength="179.2861" x="1509.72" y="161.7795">findMST(): vector&lt;Edge&gt;</text><g data-visibility-modifier="PUBLIC_METHOD"><ellipse cx="1500.72" cy="174.7297" fill="#84BE84" rx="3" ry="3" style="stroke:#038048;stroke-width:1;"/></g><text fill="#000000" font-family="sans-serif" font-size="14" lengthAdjust="spacing" textLength="214.3682" x="1509.72" y="178.0764">performBFS(start: string): void</text><g data-visibility-modifier="PUBLIC_METHOD"><ellipse cx="1500.72" cy="191.0266" fill="#84BE84" rx="3" ry="3" style="stroke:#038048;stroke-width:1;"/></g><text fill="#000000" font-family="sans-serif" font-size="14" lengthAdjust="spacing" textLength="215.5439" x="1509.72" y="194.3732">performDFS(start: string): void</text></g><!--class SearchEngine--><g class="entity" data-qualified-name="SearchEngine" data-source-line="63" id="ent0007"><rect fill="#F1F1F1" height="145.7813" rx="2.5" ry="2.5" style="stroke:#181818;stroke-width:0.5;" width="385.2969" x="1069.43" y="39.6"/><ellipse cx="1209.6351" cy="55.6" fill="#ADD1B2" rx="11" ry="11" style="stroke:#181818;stroke-width:1;"/><path d="M1212.6038,61.2406 Q1212.0257,61.5375 1211.3851,61.6781 Q1210.7445,61.8344 1210.0413,61.8344 Q1207.5413,61.8344 1206.2132,60.1938 Q1204.9007,58.5375 1204.9007,55.4125 Q1204.9007,52.2875 1206.2132,50.6313 Q1207.5413,48.975 1210.0413,48.975 Q1210.7445,48.975 1211.3851,49.1313 Q1212.0413,49.2875 1212.6038,49.5844 L1212.6038,52.3031 Q1211.9788,51.725 1211.3851,51.4594 Q1210.7913,51.1781 1210.1663,51.1781 Q1208.8226,51.1781 1208.1351,52.2563 Q1207.4476,53.3188 1207.4476,55.4125 Q1207.4476,57.5063 1208.1351,58.5844 Q1208.8226,59.6469 1210.1663,59.6469 Q1210.7913,59.6469 1211.3851,59.3813 Q1211.9788,59.1 1212.6038,58.5219 L1212.6038,61.2406 Z " fill="#000000"/><text fill="#000000" font-family="sans-serif" font-size="14" lengthAdjust="spacing" textLength="96.3867" x="1230.1351" y="60.4467">SearchEngine</text><line style="stroke:#181818;stroke-width:0.5;" x1="1070.43" x2="1453.7269" y1="71.6" y2="71.6"/><g data-visibility-modifier="PRIVATE_FIELD"><rect fill="none" height="6" style="stroke:#C82930;stroke-width:1;" width="6" x="1077.43" y="82.2484"/></g><text fill="#000000" font-family="sans-serif" font-size="14" lengthAdjust="spacing" textLength="166.3662" x="1089.43" y="88.5951">flights: vector&lt;Flight&gt;*</text><line style="stroke:#181818;stroke-width:0.5;" x1="1070.43" x2="1453.7269" y1="95.8969" y2="95.8969"/><g data-visibility-modifier="PUBLIC_METHOD"><ellipse cx="1080.43" cy="109.5453" fill="#84BE84" rx="3" ry="3" style="stroke:#038048;stroke-width:1;"/></g><text fill="#000000" font-family="sans-serif" font-size="14" lengthAdjust="spacing" textLength="107.3105" x="1089.43" y="112.892">SearchEngine()</text><g data-visibility-modifier="PUBLIC_METHOD"><ellipse cx="1080.43" cy="125.8422" fill="#84BE84" rx="3" ry="3" style="stroke:#038048;stroke-width:1;"/></g><text fill="#000000" font-family="sans-serif" font-size="14" lengthAdjust="spacing" textLength="304.5957" x="1089.43" y="129.1889">searchKMP(pattern: string): vector&lt;Flight&gt;</text><g data-visibility-modifier="PUBLIC_METHOD"><ellipse cx="1080.43" cy="142.1391" fill="#84BE84" rx="3" ry="3" style="stroke:#038048;stroke-width:1;"/></g><text fill="#000000" font-family="sans-serif" font-size="14" lengthAdjust="spacing" textLength="347.252" x="1089.43" y="145.4857">searchRabinKarp(pattern: string): vector&lt;Flight&gt;</text><g data-visibility-modifier="PUBLIC_METHOD"><ellipse cx="1080.43" cy="158.4359" fill="#84BE84" rx="3" ry="3" style="stroke:#038048;stroke-width:1;"/></g><text fill="#000000" font-family="sans-serif" font-size="14" lengthAdjust="spacing" textLength="359.2969" x="1089.43" y="161.7826">searchBoyerMoore(pattern: string): vector&lt;Flight&gt;</text><g data-visibility-modifier="PUBLIC_METHOD"><ellipse cx="1080.43" cy="174.7328" fill="#84BE84" rx="3" ry="3" style="stroke:#038048;stroke-width:1;"/></g><text fill="#000000" font-family="sans-serif" font-size="14" lengthAdjust="spacing" textLength="337.4697" x="1089.43" y="178.0795">filterByDestination(dest: string): vector&lt;Flight&gt;</text></g><!--class AVLTree--><g class="entity" data-qualified-name="AVLTree" data-source-line="72" id="ent0008"><rect fill="#F1F1F1" height="129.4844" rx="2.5" ry="2.5" style="stroke:#181818;stroke-width:0.5;" width="238.1533" x="7" y="360.16"/><ellipse cx="86.9175" cy="376.16" fill="#ADD1B2" rx="11" ry="11" style="stroke:#181818;stroke-width:1;"/><path d="M89.8862,381.8006 Q89.3081,382.0975 88.6675,382.2381 Q88.0269,382.3944 87.3237,382.3944 Q84.8237,382.3944 83.4956,380.7537 Q82.1831,379.0975 82.1831,375.9725 Q82.1831,372.8475 83.4956,371.1912 Q84.8237,369.535 87.3237,369.535 Q88.0269,369.535 88.6675,369.6912 Q89.3237,369.8475 89.8862,370.1444 L89.8862,372.8631 Q89.2612,372.285 88.6675,372.0194 Q88.0737,371.7381 87.4487,371.7381 Q86.105,371.7381 85.4175,372.8162 Q84.73,373.8787 84.73,375.9725 Q84.73,378.0662 85.4175,379.1444 Q86.105,380.2069 87.4487,380.2069 Q88.0737,380.2069 88.6675,379.9412 Q89.2612,379.66 89.8862,379.0819 L89.8862,381.8006 Z " fill="#000000"/><text fill="#000000" font-family="sans-serif" font-size="14" lengthAdjust="spacing" textLength="58.4883" x="107.4175" y="381.0067">AVLTree</text><rect fill="#FFFFFF" height="15.9688" style="stroke:#181818;stroke-width:1;stroke-dasharray:2,2;" width="9.3301" x="238.8232" y="357.16"/><text fill="#000000" font-family="sans-serif" font-size="12" font-style="italic" lengthAdjust="spacing" textLength="7.3301" x="239.8232" y="369.2987">T</text><line style="stroke:#181818;stroke-width:0.5;" x1="8" x2="244.1533" y1="392.16" y2="392.16"/><g data-visibility-modifier="PRIVATE_FIELD"><rect fill="none" height="6" style="stroke:#C82930;stroke-width:1;" width="6" x="15" y="402.8084"/></g><text fill="#000000" font-family="sans-serif" font-size="14" lengthAdjust="spacing" textLength="113.0938" x="27" y="409.1551">root: Node&lt;T&gt;*</text><line style="stroke:#181818;stroke-width:0.5;" x1="8" x2="244.1533" y1="416.4569" y2="416.4569"/><g data-visibility-modifier="PUBLIC_METHOD"><ellipse cx="18" cy="430.1053" fill="#84BE84" rx="3" ry="3" style="stroke:#038048;stroke-width:1;"/></g><text fill="#000000" font-family="sans-serif" font-size="14" lengthAdjust="spacing" textLength="138.8857" x="27" y="433.452">insert(data: T): void</text><g data-visibility-modifier="PUBLIC_METHOD"><ellipse cx="18" cy="446.4022" fill="#84BE84" rx="3" ry="3" style="stroke:#038048;stroke-width:1;"/></g><text fill="#000000" font-family="sans-serif" font-size="14" lengthAdjust="spacing" textLength="152.4414" x="27" y="449.7489">remove(data: T): void</text><g data-visibility-modifier="PUBLIC_METHOD"><ellipse cx="18" cy="462.6991" fill="#84BE84" rx="3" ry="3" style="stroke:#038048;stroke-width:1;"/></g><text fill="#000000" font-family="sans-serif" font-size="14" lengthAdjust="spacing" textLength="131.708" x="27" y="466.0457">search(data: T): T*</text><g data-visibility-modifier="PUBLIC_METHOD"><ellipse cx="18" cy="478.9959" fill="#84BE84" rx="3" ry="3" style="stroke:#038048;stroke-width:1;"/></g><text fill="#000000" font-family="sans-serif" font-size="14" lengthAdjust="spacing" textLength="212.1533" x="27" y="482.3426">inorderTraversal(): vector&lt;T&gt;</text></g><!--class BTree--><g class="entity" data-qualified-name="BTree" data-source-line="80" id="ent0009"><rect fill="#F1F1F1" height="145.7813" rx="2.5" ry="2.5" style="stroke:#181818;stroke-width:0.5;" width="307.0049" x="280.57" y="352.01"/><ellipse cx="403.5881" cy="368.01" fill="#ADD1B2" rx="11" ry="11" style="stroke:#181818;stroke-width:1;"/><path d="M406.5568,373.6506 Q405.9787,373.9475 405.3381,374.0881 Q404.6974,374.2444 403.9943,374.2444 Q401.4943,374.2444 400.1662,372.6038 Q398.8537,370.9475 398.8537,367.8225 Q398.8537,364.6975 400.1662,363.0413 Q401.4943,361.385 403.9943,361.385 Q404.6974,361.385 405.3381,361.5413 Q405.9943,361.6975 406.5568,361.9944 L406.5568,364.7131 Q405.9318,364.135 405.3381,363.8694 Q404.7443,363.5881 404.1193,363.5881 Q402.7756,363.5881 402.0881,364.6663 Q401.4006,365.7288 401.4006,367.8225 Q401.4006,369.9163 402.0881,370.9944 Q402.7756,372.0569 404.1193,372.0569 Q404.7443,372.0569 405.3381,371.7913 Q405.9318,371.51 406.5568,370.9319 L406.5568,373.6506 Z " fill="#000000"/><text fill="#000000" font-family="sans-serif" font-size="14" lengthAdjust="spacing" textLength="41.1387" x="424.0881" y="372.8567">BTree</text><rect fill="#FFFFFF" height="15.9688" style="stroke:#181818;stroke-width:1;stroke-dasharray:2,2;" width="9.3301" x="581.2448" y="349.01"/><text fill="#000000" font-family="sans-serif" font-size="12" font-style="italic" lengthAdjust="spacing" textLength="7.3301" x="582.2448" y="361.1487">T</text><line style="stroke:#181818;stroke-width:0.5;" x1="281.57" x2="586.5749" y1="384.01" y2="384.01"/><g data-visibility-modifier="PRIVATE_FIELD"><rect fill="none" height="6" style="stroke:#C82930;stroke-width:1;" width="6" x="288.57" y="394.6584"/></g><text fill="#000000" font-family="sans-serif" font-size="14" lengthAdjust="spacing" textLength="122.6982" x="300.57" y="401.0051">root: BNode&lt;T&gt;*</text><g data-visibility-modifier="PRIVATE_FIELD"><rect fill="none" height="6" style="stroke:#C82930;stroke-width:1;" width="6" x="288.57" y="410.9553"/></g><text fill="#000000" font-family="sans-serif" font-size="14" lengthAdjust="spacing" textLength="64.9961" x="300.57" y="417.302">order: int</text><line style="stroke:#181818;stroke-width:0.5;" x1="281.57" x2="586.5749" y1="424.6038" y2="424.6038"/><g data-visibility-modifier="PUBLIC_METHOD"><ellipse cx="291.57" cy="438.2522" fill="#84BE84" rx="3" ry="3" style="stroke:#038048;stroke-width:1;"/></g><text fill="#000000" font-family="sans-serif" font-size="14" lengthAdjust="spacing" textLength="138.8857" x="300.57" y="441.5989">insert(data: T): void</text><g data-visibility-modifier="PUBLIC_METHOD"><ellipse cx="291.57" cy="454.5491" fill="#84BE84" rx="3" ry="3" style="stroke:#038048;stroke-width:1;"/></g><text fill="#000000" font-family="sans-serif" font-size="14" lengthAdjust="spacing" textLength="152.4414" x="300.57" y="457.8957">remove(data: T): void</text><g data-visibility-modifier="PUBLIC_METHOD"><ellipse cx="291.57" cy="470.8459" fill="#84BE84" rx="3" ry="3" style="stroke:#038048;stroke-width:1;"/></g><text fill="#000000" font-family="sans-serif" font-size="14" lengthAdjust="spacing" textLength="131.708" x="300.57" y="474.1926">search(data: T): T*</text><g data-visibility-modifier="PUBLIC_METHOD"><ellipse cx="291.57" cy="487.1428" fill="#84BE84" rx="3" ry="3" style="stroke:#038048;stroke-width:1;"/></g><text fill="#000000" font-family="sans-serif" font-size="14" lengthAdjust="spacing" textLength="281.0049" x="300.57" y="490.4895">rangeQuery(min: T, max: T): vector&lt;T&gt;</text></g><!--class Trie--><g class="entity" data-qualified-name="Trie" data-source-line="89" id="ent0010"><rect fill="#F1F1F1" height="113.1875" rx="2.5" ry="2.5" style="stroke:#181818;stroke-width:0.5;" width="340.7607" x="1917.7" y="55.89"/><ellipse cx="2070.4251" cy="71.89" fill="#ADD1B2" rx="11" ry="11" style="stroke:#181818;stroke-width:1;"/><path d="M2073.3938,77.5306 Q2072.8157,77.8275 2072.1751,77.9681 Q2071.5345,78.1244 2070.8313,78.1244 Q2068.3313,78.1244 2067.0032,76.4837 Q2065.6907,74.8275 2065.6907,71.7025 Q2065.6907,68.5775 2067.0032,66.9212 Q2068.3313,65.265 2070.8313,65.265 Q2071.5345,65.265 2072.1751,65.4212 Q2072.8313,65.5775 2073.3938,65.8744 L2073.3938,68.5931 Q2072.7688,68.015 2072.1751,67.7494 Q2071.5813,67.4681 2070.9563,67.4681 Q2069.6126,67.4681 2068.9251,68.5462 Q2068.2376,69.6087 2068.2376,71.7025 Q2068.2376,73.7962 2068.9251,74.8744 Q2069.6126,75.9369 2070.9563,75.9369 Q2071.5813,75.9369 2072.1751,75.6712 Q2072.7688,75.39 2073.3938,74.8119 L2073.3938,77.5306 Z " fill="#000000"/><text fill="#000000" font-family="sans-serif" font-size="14" lengthAdjust="spacing" textLength="26.8105" x="2090.9251" y="76.7367">Trie</text><line style="stroke:#181818;stroke-width:0.5;" x1="1918.7" x2="2257.4607" y1="87.89" y2="87.89"/><g data-visibility-modifier="PRIVATE_FIELD"><rect fill="none" height="6" style="stroke:#C82930;stroke-width:1;" width="6" x="1925.7" y="98.5384"/></g><text fill="#000000" font-family="sans-serif" font-size="14" lengthAdjust="spacing" textLength="107.8916" x="1937.7" y="104.8851">root: TrieNode*</text><line style="stroke:#181818;stroke-width:0.5;" x1="1918.7" x2="2257.4607" y1="112.1869" y2="112.1869"/><g data-visibility-modifier="PUBLIC_METHOD"><ellipse cx="1928.7" cy="125.8353" fill="#84BE84" rx="3" ry="3" style="stroke:#038048;stroke-width:1;"/></g><text fill="#000000" font-family="sans-serif" font-size="14" lengthAdjust="spacing" textLength="173.6465" x="1937.7" y="129.182">insert(word: string): void</text><g data-visibility-modifier="PUBLIC_METHOD"><ellipse cx="1928.7" cy="142.1322" fill="#84BE84" rx="3" ry="3" style="stroke:#038048;stroke-width:1;"/></g><text fill="#000000" font-family="sans-serif" font-size="14" lengthAdjust="spacing" textLength="314.7607" x="1937.7" y="145.4789">autocomplete(prefix: string): vector&lt;string&gt;</text><g data-visibility-modifier="PUBLIC_METHOD"><ellipse cx="1928.7" cy="158.4291" fill="#84BE84" rx="3" ry="3" style="stroke:#038048;stroke-width:1;"/></g><text fill="#000000" font-family="sans-serif" font-size="14" lengthAdjust="spacing" textLength="180.8242" x="1937.7" y="161.7757">search(word: string): bool</text></g><!--class Heap--><g class="entity" data-qualified-name="Heap" data-source-line="96" id="ent0011"><rect fill="#F1F1F1" height="129.4844" rx="2.5" ry="2.5" style="stroke:#181818;stroke-width:0.5;" width="164.9814" x="622.59" y="360.16"/><ellipse cx="676.8625" cy="376.16" fill="#ADD1B2" rx="11" ry="11" style="stroke:#181818;stroke-width:1;"/><path d="M679.8312,381.8006 Q679.2531,382.0975 678.6125,382.2381 Q677.9718,382.3944 677.2687,382.3944 Q674.7687,382.3944 673.4406,380.7537 Q672.1281,379.0975 672.1281,375.9725 Q672.1281,372.8475 673.4406,371.1912 Q674.7687,369.535 677.2687,369.535 Q677.9718,369.535 678.6125,369.6912 Q679.2687,369.8475 679.8312,370.1444 L679.8312,372.8631 Q679.2062,372.285 678.6125,372.0194 Q678.0187,371.7381 677.3937,371.7381 Q676.05,371.7381 675.3625,372.8162 Q674.675,373.8787 674.675,375.9725 Q674.675,378.0662 675.3625,379.1444 Q676.05,380.2069 677.3937,380.2069 Q678.0187,380.2069 678.6125,379.9412 Q679.2062,379.66 679.8312,379.0819 L679.8312,381.8006 Z " fill="#000000"/><text fill="#000000" font-family="sans-serif" font-size="14" lengthAdjust="spacing" textLength="36.6064" x="697.3625" y="381.0067">Heap</text><rect fill="#FFFFFF" height="15.9688" style="stroke:#181818;stroke-width:1;stroke-dasharray:2,2;" width="9.3301" x="781.2414" y="357.16"/><text fill="#000000" font-family="sans-serif" font-size="12" font-style="italic" lengthAdjust="spacing" textLength="7.3301" x="782.2414" y="369.2987">T</text><line style="stroke:#181818;stroke-width:0.5;" x1="623.59" x2="786.5714" y1="392.16" y2="392.16"/><g data-visibility-modifier="PRIVATE_FIELD"><rect fill="none" height="6" style="stroke:#C82930;stroke-width:1;" width="6" x="630.59" y="402.8084"/></g><text fill="#000000" font-family="sans-serif" font-size="14" lengthAdjust="spacing" textLength="117.1201" x="642.59" y="409.1551">data: vector&lt;T&gt;</text><line style="stroke:#181818;stroke-width:0.5;" x1="623.59" x2="786.5714" y1="416.4569" y2="416.4569"/><g data-visibility-modifier="PUBLIC_METHOD"><ellipse cx="633.59" cy="430.1053" fill="#84BE84" rx="3" ry="3" style="stroke:#038048;stroke-width:1;"/></g><text fill="#000000" font-family="sans-serif" font-size="14" lengthAdjust="spacing" textLength="138.9814" x="642.59" y="433.452">insert(item: T): void</text><g data-visibility-modifier="PUBLIC_METHOD"><ellipse cx="633.59" cy="446.4022" fill="#84BE84" rx="3" ry="3" style="stroke:#038048;stroke-width:1;"/></g><text fill="#000000" font-family="sans-serif" font-size="14" lengthAdjust="spacing" textLength="107.4951" x="642.59" y="449.7489">extractMax(): T</text><g data-visibility-modifier="PUBLIC_METHOD"><ellipse cx="633.59" cy="462.6991" fill="#84BE84" rx="3" ry="3" style="stroke:#038048;stroke-width:1;"/></g><text fill="#000000" font-family="sans-serif" font-size="14" lengthAdjust="spacing" textLength="62.8633" x="642.59" y="466.0457">peek(): T</text><g data-visibility-modifier="PUBLIC_METHOD"><ellipse cx="633.59" cy="478.9959" fill="#84BE84" rx="3" ry="3" style="stroke:#038048;stroke-width:1;"/></g><text fill="#000000" font-family="sans-serif" font-size="14" lengthAdjust="spacing" textLength="101.7734" x="642.59" y="482.3426">heapify(): void</text></g><!--class HashTable--><g class="entity" data-qualified-name="HashTable" data-source-line="104" id="ent0012"><rect fill="#F1F1F1" height="129.4844" rx="2.5" ry="2.5" style="stroke:#181818;stroke-width:0.5;" width="256.2959" x="822.93" y="360.16"/><ellipse cx="897.9847" cy="376.16" fill="#ADD1B2" rx="11" ry="11" style="stroke:#181818;stroke-width:1;"/><path d="M900.9534,381.8006 Q900.3753,382.0975 899.7347,382.2381 Q899.0941,382.3944 898.3909,382.3944 Q895.8909,382.3944 894.5628,380.7537 Q893.2503,379.0975 893.2503,375.9725 Q893.2503,372.8475 894.5628,371.1912 Q895.8909,369.535 898.3909,369.535 Q899.0941,369.535 899.7347,369.6912 Q900.3909,369.8475 900.9534,370.1444 L900.9534,372.8631 Q900.3284,372.285 899.7347,372.0194 Q899.1409,371.7381 898.5159,371.7381 Q897.1722,371.7381 896.4847,372.8162 Q895.7972,373.8787 895.7972,375.9725 Q895.7972,378.0662 896.4847,379.1444 Q897.1722,380.2069 898.5159,380.2069 Q899.1409,380.2069 899.7347,379.9412 Q900.3284,379.66 900.9534,379.0819 L900.9534,381.8006 Z " fill="#000000"/><text fill="#000000" font-family="sans-serif" font-size="14" lengthAdjust="spacing" textLength="73.7939" x="918.4847" y="381.0067">HashTable</text><rect fill="#FFFFFF" height="15.9688" style="stroke:#181818;stroke-width:1;stroke-dasharray:2,2;" width="21.8926" x="1060.3333" y="357.16"/><text fill="#000000" font-family="sans-serif" font-size="12" font-style="italic" lengthAdjust="spacing" textLength="19.8926" x="1061.3333" y="369.2987">K,V</text><line style="stroke:#181818;stroke-width:0.5;" x1="823.93" x2="1078.2259" y1="392.16" y2="392.16"/><g data-visibility-modifier="PRIVATE_FIELD"><rect fill="none" height="6" style="stroke:#C82930;stroke-width:1;" width="6" x="830.93" y="402.8084"/></g><text fill="#000000" font-family="sans-serif" font-size="14" lengthAdjust="spacing" textLength="230.2959" x="842.93" y="409.1551">table: vector&lt;list&lt;pair&lt;K,V&gt;&gt;&gt;</text><g data-visibility-modifier="PRIVATE_FIELD"><rect fill="none" height="6" style="stroke:#C82930;stroke-width:1;" width="6" x="830.93" y="419.1053"/></g><text fill="#000000" font-family="sans-serif" font-size="14" lengthAdjust="spacing" textLength="54.5645" x="842.93" y="425.452">size: int</text><line style="stroke:#181818;stroke-width:0.5;" x1="823.93" x2="1078.2259" y1="432.7537" y2="432.7537"/><g data-visibility-modifier="PUBLIC_METHOD"><ellipse cx="833.93" cy="446.4022" fill="#84BE84" rx="3" ry="3" style="stroke:#038048;stroke-width:1;"/></g><text fill="#000000" font-family="sans-serif" font-size="14" lengthAdjust="spacing" textLength="198.8711" x="842.93" y="449.7489">insert(key: K, value: V): void</text><g data-visibility-modifier="PUBLIC_METHOD"><ellipse cx="833.93" cy="462.6991" fill="#84BE84" rx="3" ry="3" style="stroke:#038048;stroke-width:1;"/></g><text fill="#000000" font-family="sans-serif" font-size="14" lengthAdjust="spacing" textLength="96.0107" x="842.93" y="466.0457">get(key: K): V</text><g data-visibility-modifier="PUBLIC_METHOD"><ellipse cx="833.93" cy="478.9959" fill="#84BE84" rx="3" ry="3" style="stroke:#038048;stroke-width:1;"/></g><text fill="#000000" font-family="sans-serif" font-size="14" lengthAdjust="spacing" textLength="146.8223" x="842.93" y="482.3426">remove(key: K): bool</text></g><!--reverse link FlightManager to BTree--><g class="link" data-entity-1="ent0005" data-entity-2="ent0009" data-link-type="composition" data-source-line="112" id="lnk13"><path codeLine="112" d="M605.8173,227.1891 C567.3973,271.1891 531.56,312.24 496.87,351.98" fill="none" id="FlightManager-backto-BTree" style="stroke:#181818;stroke-width:1;"/><polygon fill="#181818" points="613.71,218.15,606.7506,220.0386,605.8173,227.1891,612.7766,225.3004,613.71,218.15" style="stroke:#181818;stroke-width:1;"/><text fill="#000000" font-family="sans-serif" font-size="13" lengthAdjust="spacing" textLength="8.271" x="599.0139" y="238.1785">1</text><text fill="#000000" font-family="sans-serif" font-size="13" lengthAdjust="spacing" textLength="8.271" x="494.9475" y="340.7604">1</text></g><!--reverse link FlightManager to AVLTree--><g class="link" data-entity-1="ent0005" data-entity-2="ent0008" data-link-type="composition" data-source-line="113" id="lnk14"><path codeLine="113" d="M524.5394,170.5748 C439.0994,201.3348 347.28,240.72 263.08,294.97 C234.93,313.1 207.36,337.38 184.42,359.98" fill="none" id="FlightManager-backto-AVLTree" style="stroke:#181818;stroke-width:1;"/><polygon fill="#181818" points="535.83,166.51,528.8298,164.7789,524.5394,170.5748,531.5396,172.3059,535.83,166.51" style="stroke:#181818;stroke-width:1;"/><text fill="#000000" font-family="sans-serif" font-size="13" lengthAdjust="spacing" textLength="8.271" x="519.9858" y="165.6881">1</text><text fill="#000000" font-family="sans-serif" font-size="13" lengthAdjust="spacing" textLength="8.271" x="182.3786" y="349.133">1</text></g><!--reverse link FlightManager to Heap--><g class="link" data-entity-1="ent0005" data-entity-2="ent0011" data-link-type="composition" data-source-line="114" id="lnk15"><path codeLine="114" d="M705.08,230.15 C705.08,277.14 705.08,319.08 705.08,359.93" fill="none" id="FlightManager-backto-Heap" style="stroke:#181818;stroke-width:1;"/><polygon fill="#181818" points="705.08,218.15,701.08,224.15,705.08,230.15,709.08,224.15,705.08,218.15" style="stroke:#181818;stroke-width:1;"/><text fill="#000000" font-family="sans-serif" font-size="13" lengthAdjust="spacing" textLength="8.271" x="696.8083" y="238.1785">1</text><text fill="#000000" font-family="sans-serif" font-size="13" lengthAdjust="spacing" textLength="8.271" x="696.6572" y="349.0775">1</text></g><!--reverse link FlightManager to HashTable--><g class="link" data-entity-1="ent0005" data-entity-2="ent0012" data-link-type="composition" data-source-line="115" id="lnk16"><path codeLine="115" d="M795.4733,227.5547 C832.7133,274.5447 868,319.08 900.38,359.93" fill="none" id="FlightManager-backto-HashTable" style="stroke:#181818;stroke-width:1;"/><polygon fill="#181818" points="788.02,218.15,788.6118,225.3368,795.4733,227.5547,794.8815,220.3679,788.02,218.15" style="stroke:#181818;stroke-width:1;"/><text fill="#000000" font-family="sans-serif" font-size="13" lengthAdjust="spacing" textLength="8.271" x="785.5801" y="238.1785">1</text><text fill="#000000" font-family="sans-serif" font-size="13" lengthAdjust="spacing" textLength="8.271" x="886.4122" y="349.0775">1</text></g><!--link FlightManager to Flight--><g class="link" data-entity-1="ent0005" data-entity-2="ent0002" data-link-type="dependency" data-source-line="116" id="lnk17"><path codeLine="116" d="M874.43,181.7 C945.15,212.77 1027,252.16 1097.08,294.97 C1102.51,298.29 1102.9382,298.4765 1108.3982,302.0465" fill="none" id="FlightManager-to-Flight" style="stroke:#181818;stroke-width:1;"/><polygon fill="#181818" points="1113.42,305.33,1108.0763,297.0569,1109.2352,302.5938,1103.6983,303.7526,1113.42,305.33" style="stroke:#181818;stroke-width:1;"/><text fill="#000000" font-family="sans-serif" font-size="13" lengthAdjust="spacing" textLength="59.8584" x="1037.08" y="261.0369">manages</text><text fill="#000000" font-family="sans-serif" font-size="13" lengthAdjust="spacing" textLength="8.271" x="882.2911" y="181.5664">1</text><text fill="#000000" font-family="sans-serif" font-size="13" lengthAdjust="spacing" textLength="6.5" x="1099.14" y="295.4514">*</text></g><!--reverse link Airport to Runway--><g class="link" data-entity-1="ent0003" data-entity-2="ent0004" data-link-type="composition" data-source-line="118" id="lnk18"><path codeLine="118" d="M1686.08,534.6 C1686.08,565.02 1686.08,586.25 1686.08,615.41" fill="none" id="Airport-backto-Runway" style="stroke:#181818;stroke-width:1;"/><polygon fill="#181818" points="1686.08,522.6,1682.08,528.6,1686.08,534.6,1690.08,528.6,1686.08,522.6" style="stroke:#181818;stroke-width:1;"/><text fill="#000000" font-family="sans-serif" font-size="13" lengthAdjust="spacing" textLength="8.271" x="1677.7967" y="542.397">1</text><text fill="#000000" font-family="sans-serif" font-size="13" lengthAdjust="spacing" textLength="6.5" x="1679.8443" y="604.8377">*</text></g><!--reverse link RouteGraph to Airport--><g class="link" data-entity-1="ent0006" data-entity-2="ent0003" data-link-type="aggregation" data-source-line="120" id="lnk19"><path codeLine="120" d="M1686.08,214.02 C1686.08,253.09 1686.08,287.11 1686.08,327.09" fill="none" id="RouteGraph-backto-Airport" style="stroke:#181818;stroke-width:1;"/><polygon fill="none" points="1686.08,202.02,1682.08,208.02,1686.08,214.02,1690.08,208.02,1686.08,202.02" style="stroke:#181818;stroke-width:1;"/><text fill="#000000" font-family="sans-serif" font-size="13" lengthAdjust="spacing" textLength="8.271" x="1677.772" y="221.8245">1</text><text fill="#000000" font-family="sans-serif" font-size="13" lengthAdjust="spacing" textLength="6.5" x="1679.8785" y="316.4276">*</text></g><!--link SearchEngine to Flight--><g class="link" data-entity-1="ent0007" data-entity-2="ent0002" data-link-type="dependency" data-source-line="122" id="lnk20"><path codeLine="122" d="M1262.08,185.87 C1262.08,218.3 1262.08,251.55 1262.08,288.74" fill="none" id="SearchEngine-to-Flight" style="stroke:#181818;stroke-width:1;"/><polygon fill="#181818" points="1262.08,294.74,1266.08,285.74,1262.08,289.74,1258.08,285.74,1262.08,294.74" style="stroke:#181818;stroke-width:1;"/><text fill="#000000" font-family="sans-serif" font-size="13" lengthAdjust="spacing" textLength="58.2397" x="1263.08" y="261.0369">searches</text><text fill="#000000" font-family="sans-serif" font-size="13" lengthAdjust="spacing" textLength="6.5" x="1255.9213" y="283.8523">*</text></g><?plantuml-src hLPBRzim3BxxLnWzUMros3Ke0ZJhkWrTYsunUbTj9jPgImObPyc6_VTH3zkIamKRi5CYaY8_VkB3HSsKIkzglgrq-ZD9qtcwiOV7hda1NAHA8nTRgv38jrn4eXAKve9fBgVobg7k47BUm2AzPTh-ipg6o7UiFg5faLCCVLYaN6WhKPhfJYqymBKzaUBA2x8tzh05VHU0pju4MAvIDT6AA3EotKbUzdwUF0JZmu6uIWaiBmcdaRr8MLjX8HjA4NAPILqPTow6l_OhIGhBx0t7Lc9FRI5BY7WIh8a5jIoEsSHEV6S7ec47XPPu_TMUbnQ73p0oyOvYJ1WWwIC5caXPMJf7cVE_IDrnmiZDZl6QlTJWjCfucU0OidK2dwpp-kasIeMhmTz09fL4RVE6qf7OatbfCNYGBi7UCjj4bk7B8DJ0bCrsoAEee7ZraNdjtzVU6B0xHmzCi2rWr0f4_2f7W6jdidILIIxBpcHny_pvIDjNyfSEEZBv2AoDzCxn9r72dhHCLRbXvDeHDKj7qwiOLyz2wPawGqF1H05rPFOuhVp1M073elB61I47v2ni4VVW8IugZRNd83jjqRMcQyu27Ij7TXe-86ihJpqhlx42H77up1LTQuZ0dXqVwdsvXQMZaxac63l4TuN3CVeUwREoR8EowRESfLgE_mjfefQoesS92sd3HRcko3KDlYUcgomUYZCx4GFYZCrmyM6T1rHP_5RN0cuaDgkxTKO33_MfsUHjRlzaCp2vja_vNX0gc9Pn_4YklK9xpu-hXlk7fwnbcaf1dAy4P_wLEalSCsp_vT9A7W0Vf4JukriRNfFHwd0xxfrimlZarZY9VPlcotu-IKdt7cbSainnmOK2cgLKjbJyUKW_GYDtS4hZ4WaqUUzBOWcO8zi1AbO7Bvy7i5QdGAq2L6RlbgPh-tNqFq4Y4rkW8OM7h35LdC-eq_R-yZ7O73b4G8t0O8te-qw0JvKmwxGqQxC6QhqMOSFtn-_cpc6DJFt5WyEEre4-b-28F415CwsPi09xZQoWsRetZvFxFeFNyLIHTxuvP4TTDixi-zbp7rsxjUR3rpIuhbiQJTR4Joh5Vy3HKxu2BT_xcVdGCDlYURA1lPwap-4p3zAUa7Y3NRozI2_dS_jhY-oCtlV66Gj3ypbrJyS9c_bycLvSNlGVcMQM6wLAalxZQF14LcxR9qcm48nQUhM_aYJHc3iAuIe7r6y0?></g></svg>