<svg xmlns="http://www.w3.org/2000/svg" xmlns:xlink="http://www.w3.org/1999/xlink" contentStyleType="text/css" data-diagram-type="DESCRIPTION" height="330px" preserveAspectRatio="none" style="width:585px;height:330px;background:#FFFFFF;" version="1.1" viewBox="0 0 585 330" width="585px" zoomAndPan="magnify"><?plantuml 1.2026.4beta2?><defs/><g><!--cluster IntelliFly System--><g class="cluster" data-qualified-name="IntelliFly System" data-source-line="1" id="ent0002"><path d="M8.5,6 L141.9395,6 A3.75,3.75 0 0 1 144.4395,8.5 L151.4395,28.2969 L567.5,28.2969 A2.5,2.5 0 0 1 570,30.7969 L570,313.39 A2.5,2.5 0 0 1 567.5,315.89 L8.5,315.89 A2.5,2.5 0 0 1 6,313.39 L6,8.5 A2.5,2.5 0 0 1 8.5,6" fill="none" style="stroke:#000000;stroke-width:1.5;"/><line style="stroke:#000000;stroke-width:1.5;" x1="6" x2="151.4395" y1="28.2969" y2="28.2969"/><text fill="#000000" font-family="sans-serif" font-size="14" font-weight="700" lengthAdjust="spacing" textLength="132.4395" x="10" y="20.9951">IntelliFly System</text></g><!--entity UI--><g class="entity" data-qualified-name="IntelliFly System.UI" data-source-line="3" id="ent0003"><rect fill="#F1F1F1" height="46.2969" rx="2.5" ry="2.5" style="stroke:#181818;stroke-width:0.5;" width="139.0391" x="236.48" y="41"/><rect fill="#F1F1F1" height="10" style="stroke:#181818;stroke-width:0.5;" width="15" x="355.5191" y="46"/><rect fill="#F1F1F1" height="2" style="stroke:#181818;stroke-width:0.5;" width="4" x="353.5191" y="48"/><rect fill="#F1F1F1" height="2" style="stroke:#181818;stroke-width:0.5;" width="4" x="353.5191" y="52"/><text fill="#000000" font-family="sans-serif" font-size="14" lengthAdjust="spacing" textLength="99.0391" x="251.48" y="73.9951">User Interface</text></g><!--entity FM--><g class="entity" data-qualified-name="IntelliFly System.FM" data-source-line="4" id="ent0004"><rect fill="#F1F1F1" height="46.2969" rx="2.5" ry="2.5" style="stroke:#181818;stroke-width:0.5;" width="175.7549" x="22.12" y="147.3"/><rect fill="#F1F1F1" height="10" style="stroke:#181818;stroke-width:0.5;" width="15" x="177.8749" y="152.3"/><rect fill="#F1F1F1" height="2" style="stroke:#181818;stroke-width:0.5;" width="4" x="175.8749" y="154.3"/><rect fill="#F1F1F1" height="2" style="stroke:#181818;stroke-width:0.5;" width="4" x="175.8749" y="158.3"/><text fill="#000000" font-family="sans-serif" font-size="14" lengthAdjust="spacing" textLength="135.7549" x="37.12" y="180.2951">Flight Management</text></g><!--entity RP--><g class="entity" data-qualified-name="IntelliFly System.RP" data-source-line="5" id="ent0005"><rect fill="#F1F1F1" height="46.2969" rx="2.5" ry="2.5" style="stroke:#181818;stroke-width:0.5;" width="146.0254" x="232.99" y="147.3"/><rect fill="#F1F1F1" height="10" style="stroke:#181818;stroke-width:0.5;" width="15" x="359.0154" y="152.3"/><rect fill="#F1F1F1" height="2" style="stroke:#181818;stroke-width:0.5;" width="4" x="357.0154" y="154.3"/><rect fill="#F1F1F1" height="2" style="stroke:#181818;stroke-width:0.5;" width="4" x="357.0154" y="158.3"/><text fill="#000000" font-family="sans-serif" font-size="14" lengthAdjust="spacing" textLength="106.0254" x="247.99" y="180.2951">Route Planning</text></g><!--entity SE--><g class="entity" data-qualified-name="IntelliFly System.SE" data-source-line="6" id="ent0006"><rect fill="#F1F1F1" height="46.2969" rx="2.5" ry="2.5" style="stroke:#181818;stroke-width:0.5;" width="140.8369" x="413.58" y="147.3"/><rect fill="#F1F1F1" height="10" style="stroke:#181818;stroke-width:0.5;" width="15" x="534.4169" y="152.3"/><rect fill="#F1F1F1" height="2" style="stroke:#181818;stroke-width:0.5;" width="4" x="532.4169" y="154.3"/><rect fill="#F1F1F1" height="2" style="stroke:#181818;stroke-width:0.5;" width="4" x="532.4169" y="158.3"/><text fill="#000000" font-family="sans-serif" font-size="14" lengthAdjust="spacing" textLength="100.8369" x="428.58" y="180.2951">Search Engine</text></g><!--entity DS--><g class="entity" data-qualified-name="IntelliFly System.DS" data-source-line="7" id="ent0007"><rect fill="#F1F1F1" height="46.2969" rx="2.5" ry="2.5" style="stroke:#181818;stroke-width:0.5;" width="150.6055" x="370.7" y="253.59"/><rect fill="#F1F1F1" height="10" style="stroke:#181818;stroke-width:0.5;" width="15" x="501.3055" y="258.59"/><rect fill="#F1F1F1" height="2" style="stroke:#181818;stroke-width:0.5;" width="4" x="499.3055" y="260.59"/><rect fill="#F1F1F1" height="2" style="stroke:#181818;stroke-width:0.5;" width="4" x="499.3055" y="264.59"/><text fill="#000000" font-family="sans-serif" font-size="14" lengthAdjust="spacing" textLength="110.6055" x="385.7" y="286.5851">Data Structures</text></g><!--entity ALG--><g class="entity" data-qualified-name="IntelliFly System.ALG" data-source-line="8" id="ent0008"><rect fill="#F1F1F1" height="46.2969" rx="2.5" ry="2.5" style="stroke:#181818;stroke-width:0.5;" width="115.8584" x="220.07" y="253.59"/><rect fill="#F1F1F1" height="10" style="stroke:#181818;stroke-width:0.5;" width="15" x="315.9284" y="258.59"/><rect fill="#F1F1F1" height="2" style="stroke:#181818;stroke-width:0.5;" width="4" x="313.9284" y="260.59"/><rect fill="#F1F1F1" height="2" style="stroke:#181818;stroke-width:0.5;" width="4" x="313.9284" y="264.59"/><text fill="#000000" font-family="sans-serif" font-size="14" lengthAdjust="spacing" textLength="75.8584" x="235.07" y="286.5851">Algorithms</text></g><!--entity STG--><g class="entity" data-qualified-name="IntelliFly System.STG" data-source-line="9" id="ent0009"><rect fill="#F1F1F1" height="46.2969" rx="2.5" ry="2.5" style="stroke:#181818;stroke-width:0.5;" width="94.7764" x="62.61" y="253.59"/><rect fill="#F1F1F1" height="10" style="stroke:#181818;stroke-width:0.5;" width="15" x="137.3864" y="258.59"/><rect fill="#F1F1F1" height="2" style="stroke:#181818;stroke-width:0.5;" width="4" x="135.3864" y="260.59"/><rect fill="#F1F1F1" height="2" style="stroke:#181818;stroke-width:0.5;" width="4" x="135.3864" y="264.59"/><text fill="#000000" font-family="sans-serif" font-size="14" lengthAdjust="spacing" textLength="54.7764" x="77.61" y="286.5851">Storage</text></g><!--link UI to FM--><g class="link" data-entity-1="ent0003" data-entity-2="ent0004" data-link-type="dependency" data-source-line="11" id="lnk10"><path d="M263.47,87.78 C230.6,105.27 190.5968,126.5615 157.7468,144.0415" fill="none" id="UI-to-FM" style="stroke:#181818;stroke-width:1;"/><polygon fill="#181818" points="152.45,146.86,162.2742,146.1634,156.864,144.5112,158.5162,139.101,152.45,146.86" style="stroke:#181818;stroke-width:1;"/></g><!--link UI to RP--><g class="link" data-entity-1="ent0003" data-entity-2="ent0005" data-link-type="dependency" data-source-line="12" id="lnk11"><path d="M306,87.78 C306,105.27 306,123.38 306,140.86" fill="none" id="UI-to-RP" style="stroke:#181818;stroke-width:1;"/><polygon fill="#181818" points="306,146.86,310,137.86,306,141.86,302,137.86,306,146.86" style="stroke:#181818;stroke-width:1;"/></g><!--link UI to SE--><g class="link" data-entity-1="ent0003" data-entity-2="ent0006" data-link-type="dependency" data-source-line="13" id="lnk12"><path d="M344.62,87.78 C374.48,105.27 410.4329,126.3473 440.2729,143.8273" fill="none" id="UI-to-SE" style="stroke:#181818;stroke-width:1;"/><polygon fill="#181818" points="445.45,146.86,439.7061,138.8595,441.1357,144.3327,435.6625,145.7623,445.45,146.86" style="stroke:#181818;stroke-width:1;"/></g><!--link FM to DS--><g class="link" data-entity-1="ent0004" data-entity-2="ent0007" data-link-type="dependency" data-source-line="15" id="lnk13"><path d="M182.91,194.08 C239.27,211.57 311.1796,233.8918 367.5096,251.3718" fill="none" id="FM-to-DS" style="stroke:#181818;stroke-width:1;"/><polygon fill="#181818" points="373.24,253.15,365.8298,246.6624,368.4646,251.6681,363.4589,254.3029,373.24,253.15" style="stroke:#181818;stroke-width:1;"/></g><!--link FM to ALG--><g class="link" data-entity-1="ent0004" data-entity-2="ent0008" data-link-type="dependency" data-source-line="16" id="lnk14"><path d="M146.45,194.08 C174.63,211.57 208.3623,232.5056 236.5223,249.9856" fill="none" id="FM-to-ALG" style="stroke:#181818;stroke-width:1;"/><polygon fill="#181818" points="241.62,253.15,236.083,245.005,237.3719,250.513,231.8638,251.8019,241.62,253.15" style="stroke:#181818;stroke-width:1;"/></g><!--link FM to STG--><g class="link" data-entity-1="ent0004" data-entity-2="ent0009" data-link-type="dependency" data-source-line="17" id="lnk15"><path d="M110,194.08 C110,211.57 110,229.67 110,247.15" fill="none" id="FM-to-STG" style="stroke:#181818;stroke-width:1;"/><polygon fill="#181818" points="110,253.15,114,244.15,110,248.15,106,244.15,110,253.15" style="stroke:#181818;stroke-width:1;"/></g><!--link RP to DS--><g class="link" data-entity-1="ent0005" data-entity-2="ent0007" data-link-type="dependency" data-source-line="19" id="lnk16"><path d="M336.38,194.08 C359.86,211.57 387.398,232.0861 410.868,249.5661" fill="none" id="RP-to-DS" style="stroke:#181818;stroke-width:1;"/><polygon fill="#181818" points="415.68,253.15,410.8512,244.5661,411.67,250.1634,406.0727,250.9822,415.68,253.15" style="stroke:#181818;stroke-width:1;"/></g><!--link RP to ALG--><g class="link" data-entity-1="ent0005" data-entity-2="ent0008" data-link-type="dependency" data-source-line="20" id="lnk17"><path d="M299.92,194.08 C295.23,211.57 290.3179,229.8758 285.6179,247.3558" fill="none" id="RP-to-ALG" style="stroke:#181818;stroke-width:1;"/><polygon fill="#181818" points="284.06,253.15,290.2597,245.4973,285.3583,248.3215,282.5341,243.4201,284.06,253.15" style="stroke:#181818;stroke-width:1;"/></g><!--link SE to DS--><g class="link" data-entity-1="ent0006" data-entity-2="ent0007" data-link-type="dependency" data-source-line="22" id="lnk18"><path d="M475.75,194.08 C469.38,211.57 462.6543,230.0327 456.2843,247.5127" fill="none" id="SE-to-DS" style="stroke:#181818;stroke-width:1;"/><polygon fill="#181818" points="454.23,253.15,461.0697,246.0635,455.942,248.4522,453.5533,243.3244,454.23,253.15" style="stroke:#181818;stroke-width:1;"/></g><!--link SE to ALG--><g class="link" data-entity-1="ent0006" data-entity-2="ent0008" data-link-type="dependency" data-source-line="23" id="lnk19"><path d="M439.3,194.08 C404.75,211.57 362.4932,232.9601 327.9632,250.4401" fill="none" id="SE-to-ALG" style="stroke:#181818;stroke-width:1;"/><polygon fill="#181818" points="322.61,253.15,332.4464,252.6539,327.071,250.8917,328.8331,245.5164,322.61,253.15" style="stroke:#181818;stroke-width:1;"/></g><?plantuml-src HOxB2eD034Nt_OhGlRzG47mWL12dhaeNGT9nw3YMCIwazDyxBofaSPCJJlB6yOMIuDmO9grLfNSG-yeqd-5p0d1r7rQouBbzuaWFm1M6neDAApanj6YSOYR3WLMjP_soCK6dqHXbP01zvu4WjEC4fP7AH9ae_Rn0HX1ijv4tIsiWXV0artAnYgSv3lDh7JoyM7Ss6cvr_7Le8CikyOMKmzMKmoLNLHlQe4yvMbFpz_NTiPXoN7GboeEbdDZt1m00?></g></svg>