<svg xmlns="http://www.w3.org/2000/svg" xmlns:xlink="http://www.w3.org/1999/xlink" contentStyleType="text/css" data-diagram-type="DESCRIPTION" height="246px" preserveAspectRatio="none" style="width:623px;height:246px;background:#FFFFFF;" version="1.1" viewBox="0 0 623 246" width="623px" zoomAndPan="magnify"><?plantuml 1.2026.4beta2?><defs/><g><!--cluster Airport Workstation--><g class="cluster" data-qualified-name="Airport Workstation" data-source-line="1" id="ent0002"><polygon fill="none" points="16,16,26,6,598,6,598,211.59,588,221.59,16,221.59,16,16" style="stroke:#181818;stroke-width:1;"/><line style="stroke:#181818;stroke-width:1;" x1="588" x2="598" y1="16" y2="6"/><line style="stroke:#181818;stroke-width:1;" x1="16" x2="588" y1="16" y2="16"/><line style="stroke:#181818;stroke-width:1;" x1="588" x2="588" y1="16" y2="221.59"/><text fill="#000000" font-family="sans-serif" font-size="14" font-weight="700" lengthAdjust="spacing" textLength="157.4727" x="224.2637" y="31.9951">Airport Workstation</text></g><!--cluster Data Files--><g class="cluster" data-qualified-name="Airport Workstation.Data Files" data-source-line="3" id="ent0004"><path d="M42.5,110.29 L122.5713,110.29 A3.75,3.75 0 0 1 125.0713,112.79 L132.0713,132.5869 L423.5,132.5869 A2.5,2.5 0 0 1 426,135.0869 L426,195.09 A2.5,2.5 0 0 1 423.5,197.59 L42.5,197.59 A2.5,2.5 0 0 1 40,195.09 L40,112.79 A2.5,2.5 0 0 1 42.5,110.29" fill="none" style="stroke:#000000;stroke-width:1.5;"/><line style="stroke:#000000;stroke-width:1.5;" x1="40" x2="132.0713" y1="132.5869" y2="132.5869"/><text fill="#000000" font-family="sans-serif" font-size="14" font-weight="700" lengthAdjust="spacing" textLength="79.0713" x="44" y="125.2851">Data Files</text></g><!--cluster Configuration--><g class="cluster" data-qualified-name="Airport Workstation.Configuration" data-source-line="8" id="ent0008"><path d="M452.5,110.29 L561.665,110.29 A3.75,3.75 0 0 1 564.165,112.79 L571.165,132.5869 L571.5,132.5869 A2.5,2.5 0 0 1 574,135.0869 L574,195.09 A2.5,2.5 0 0 1 571.5,197.59 L452.5,197.59 A2.5,2.5 0 0 1 450,195.09 L450,112.79 A2.5,2.5 0 0 1 452.5,110.29" fill="none" style="stroke:#000000;stroke-width:1.5;"/><line style="stroke:#000000;stroke-width:1.5;" x1="450" x2="571.165" y1="132.5869" y2="132.5869"/><text fill="#000000" font-family="sans-serif" font-size="14" font-weight="700" lengthAdjust="spacing" textLength="108.165" x="454" y="125.2851">Configuration</text></g><!--entity exe--><g class="entity" data-qualified-name="Airport Workstation.exe" data-source-line="2" id="ent0003"><rect fill="#F1F1F1" height="39.2969" rx="2.5" ry="2.5" style="stroke:#181818;stroke-width:0.5;" width="115.5996" x="240.2" y="46"/><polygon fill="#F1F1F1" points="338.7996,51,338.7996,65,350.7996,65,350.7996,57,344.7996,51,338.7996,51" style="stroke:#181818;stroke-width:0.5;"/><line style="stroke:#181818;stroke-width:0.5;" x1="344.7996" x2="344.7996" y1="51" y2="57"/><line style="stroke:#181818;stroke-width:0.5;" x1="350.7996" x2="344.7996" y1="57" y2="57"/><text fill="#000000" font-family="sans-serif" font-size="14" lengthAdjust="spacing" textLength="85.5996" x="250.2" y="71.9951">intellifly.exe</text></g><!--entity flights--><g class="entity" data-qualified-name="Airport Workstation.Data Files.flights" data-source-line="4" id="ent0005"><path d="M55.67,147.79 L55.67,179.0869 A2.5,2.5 0 0 0 58.17,181.5869 L143.8263,181.5869 A2.5,2.5 0 0 0 146.3263,179.0869 L146.3263,155.29 L136.3263,145.29 L58.17,145.29 A2.5,2.5 0 0 0 55.67,147.79" fill="#F1F1F1" style="stroke:#181818;stroke-width:0.5;"/><path d="M136.3263,145.29 L136.3263,152.79 A2.5,2.5 0 0 0 138.8263,155.29 L146.3263,155.29" fill="#F1F1F1" style="stroke:#181818;stroke-width:0.5;"/><text fill="#000000" font-family="sans-serif" font-size="14" lengthAdjust="spacing" textLength="70.6563" x="65.67" y="168.2851">flights.dat</text></g><!--entity airports--><g class="entity" data-qualified-name="Airport Workstation.Data Files.airports" data-source-line="5" id="ent0006"><path d="M181.19,147.79 L181.19,179.0869 A2.5,2.5 0 0 0 183.69,181.5869 L280.3111,181.5869 A2.5,2.5 0 0 0 282.8111,179.0869 L282.8111,155.29 L272.8111,145.29 L183.69,145.29 A2.5,2.5 0 0 0 181.19,147.79" fill="#F1F1F1" style="stroke:#181818;stroke-width:0.5;"/><path d="M272.8111,145.29 L272.8111,152.79 A2.5,2.5 0 0 0 275.3111,155.29 L282.8111,155.29" fill="#F1F1F1" style="stroke:#181818;stroke-width:0.5;"/><text fill="#000000" font-family="sans-serif" font-size="14" lengthAdjust="spacing" textLength="81.6211" x="191.19" y="168.2851">airports.dat</text></g><!--entity routes--><g class="entity" data-qualified-name="Airport Workstation.Data Files.routes" data-source-line="6" id="ent0007"><path d="M318,147.79 L318,179.0869 A2.5,2.5 0 0 0 320.5,181.5869 L407.4961,181.5869 A2.5,2.5 0 0 0 409.9961,179.0869 L409.9961,155.29 L399.9961,145.29 L320.5,145.29 A2.5,2.5 0 0 0 318,147.79" fill="#F1F1F1" style="stroke:#181818;stroke-width:0.5;"/><path d="M399.9961,145.29 L399.9961,152.79 A2.5,2.5 0 0 0 402.4961,155.29 L409.9961,155.29" fill="#F1F1F1" style="stroke:#181818;stroke-width:0.5;"/><text fill="#000000" font-family="sans-serif" font-size="14" lengthAdjust="spacing" textLength="71.9961" x="328" y="168.2851">routes.dat</text></g><!--entity config--><g class="entity" data-qualified-name="Airport Workstation.Configuration.config" data-source-line="9" id="ent0009"><path d="M466.03,147.79 L466.03,179.0869 A2.5,2.5 0 0 0 468.53,181.5869 L547.4734,181.5869 A2.5,2.5 0 0 0 549.9734,179.0869 L549.9734,155.29 L539.9734,145.29 L468.53,145.29 A2.5,2.5 0 0 0 466.03,147.79" fill="#F1F1F1" style="stroke:#181818;stroke-width:0.5;"/><path d="M539.9734,145.29 L539.9734,152.79 A2.5,2.5 0 0 0 542.4734,155.29 L549.9734,155.29" fill="#F1F1F1" style="stroke:#181818;stroke-width:0.5;"/><text fill="#000000" font-family="sans-serif" font-size="14" lengthAdjust="spacing" textLength="63.9434" x="476.03" y="168.2851">config.ini</text></g><!--link exe to flights--><g class="link" data-entity-1="ent0003" data-entity-2="ent0005" data-link-type="dependency" data-source-line="12" id="lnk10"><path d="M239.83,75.49 C215.34,80.86 187.2,89.28 164,102.29 C144.61,113.17 130.6487,126.8551 118.9187,140.3951" fill="none" id="exe-to-flights" style="stroke:#181818;stroke-width:1;"/><polygon fill="#181818" points="114.99,144.93,123.9063,140.7468,118.2639,141.1509,117.8598,135.5085,114.99,144.93" style="stroke:#181818;stroke-width:1;"/></g><!--link exe to airports--><g class="link" data-entity-1="ent0003" data-entity-2="ent0006" data-link-type="dependency" data-source-line="13" id="lnk11"><path d="M284.96,85.57 C273.09,102.8 259.1038,123.0989 247.5238,139.9089" fill="none" id="exe-to-airports" style="stroke:#181818;stroke-width:1;"/><polygon fill="#181818" points="244.12,144.85,252.5197,139.7076,246.9565,140.7324,245.9316,135.1692,244.12,144.85" style="stroke:#181818;stroke-width:1;"/></g><!--link exe to routes--><g class="link" data-entity-1="ent0003" data-entity-2="ent0007" data-link-type="dependency" data-source-line="14" id="lnk12"><path d="M311.04,85.57 C322.91,102.8 336.8962,123.0989 348.4762,139.9089" fill="none" id="exe-to-routes" style="stroke:#181818;stroke-width:1;"/><polygon fill="#181818" points="351.88,144.85,350.0684,135.1692,349.0435,140.7324,343.4803,139.7076,351.88,144.85" style="stroke:#181818;stroke-width:1;"/></g><!--link exe to config--><g class="link" data-entity-1="ent0003" data-entity-2="ent0009" data-link-type="dependency" data-source-line="15" id="lnk13"><path d="M356,78.09 C378.52,83.73 404.11,91.66 426,102.29 C449.19,113.56 468.0162,127.6685 483.8462,141.0385" fill="none" id="exe-to-config" style="stroke:#181818;stroke-width:1;"/><polygon fill="#181818" points="488.43,144.91,484.1353,136.0469,484.6101,141.6838,478.9733,142.1586,488.43,144.91" style="stroke:#181818;stroke-width:1;"/></g><?plantuml-src JKzT2i8m37xt5A7lsn44KRo2ps5BPx0qqcQWoEw-iAwk40ZVN_CroaZWBfpUaXGUabvPKLcYWzy909Eonq71SLGAWNtuzlGX1vZ1jbcyX94Ik1igmfq3vH8rnG0u7tXwQkv7r2sruyQ1vVfXgKJZIJ8h7Ou2JL-Q1bU9dgSvDVrhVDYadYDlyGBtk8tz1Bhkt7IhJ5EbKl_RbTXVMrO0?></g></svg>