<svg xmlns="http://www.w3.org/2000/svg" xmlns:xlink="http://www.w3.org/1999/xlink" contentStyleType="text/css" data-diagram-type="DESCRIPTION" height="656px" preserveAspectRatio="none" style="width:701px;height:656px;background:#FFFFFF;" version="1.1" viewBox="0 0 701 656" width="701px" zoomAndPan="magnify"><?plantuml 1.2026.4beta2?><defs/><g><!--cluster IntelliFly--><g class="cluster" data-qualified-name="IntelliFly" data-source-line="8" id="ent0005"><rect fill="none" height="497" rx="2.5" ry="2.5" style="stroke:#181818;stroke-width:1;" width="482.14" x="205.34" y="27.12"/><text fill="#000000" font-family="sans-serif" font-size="14" font-weight="700" lengthAdjust="spacing" textLength="69.248" x="411.786" y="42.1151">IntelliFly</text></g><!--entity UC1--><g class="entity" data-qualified-name="IntelliFly.UC1" data-source-line="9" id="ent0006"><ellipse cx="309.8078" cy="426.1196" fill="#F1F1F1" rx="69.7978" ry="16.3596" style="stroke:#181818;stroke-width:0.5;"/><text fill="#000000" font-family="sans-serif" font-size="14" lengthAdjust="spacing" textLength="105.8682" x="256.8737" y="430.768">Add New Flight</text></g><!--entity UC2--><g class="entity" data-qualified-name="IntelliFly.UC2" data-source-line="10" id="ent0007"><ellipse cx="309.8099" cy="493.122" fill="#F1F1F1" rx="64.0599" ry="15.212" style="stroke:#181818;stroke-width:0.5;"/><text fill="#000000" font-family="sans-serif" font-size="14" lengthAdjust="spacing" textLength="90.959" x="264.3304" y="497.7704">Cancel Flight</text></g><!--entity UC3--><g class="entity" data-qualified-name="IntelliFly.UC3" data-source-line="11" id="ent0008"><ellipse cx="309.812" cy="285.1184" fill="#F1F1F1" rx="61.642" ry="14.7284" style="stroke:#181818;stroke-width:0.5;"/><text fill="#000000" font-family="sans-serif" font-size="14" lengthAdjust="spacing" textLength="84.3555" x="267.6343" y="289.7668">View Flights</text></g><!--entity UC4--><g class="entity" data-qualified-name="IntelliFly.UC4" data-source-line="12" id="ent0009"><ellipse cx="597.3804" cy="296.1201" fill="#F1F1F1" rx="74.1004" ry="17.2201" style="stroke:#181818;stroke-width:0.5;"/><text fill="#000000" font-family="sans-serif" font-size="14" lengthAdjust="spacing" textLength="116.5391" x="539.1108" y="300.7685">Allocate Runway</text></g><!--entity UC5--><g class="entity" data-qualified-name="IntelliFly.UC5" data-source-line="13" id="ent0010"><ellipse cx="597.3848" cy="381.125" fill="#F1F1F1" rx="64.4248" ry="15.285" style="stroke:#181818;stroke-width:0.5;"/><text fill="#000000" font-family="sans-serif" font-size="14" lengthAdjust="spacing" textLength="91.9365" x="551.4165" y="385.7734">Search Flight</text></g><!--entity UC6--><g class="entity" data-qualified-name="IntelliFly.UC6" data-source-line="14" id="ent0011"><ellipse cx="309.8086" cy="145.1236" fill="#F1F1F1" rx="56.3886" ry="14.5236" style="stroke:#181818;stroke-width:0.5;"/><text fill="#000000" font-family="sans-serif" font-size="14" lengthAdjust="spacing" textLength="75.5029" x="272.0572" y="149.7721">Plan Route</text></g><!--entity UC7--><g class="entity" data-qualified-name="IntelliFly.UC7" data-source-line="15" id="ent0012"><ellipse cx="309.8094" cy="355.1239" fill="#F1F1F1" rx="88.4694" ry="20.0939" style="stroke:#181818;stroke-width:0.5;"/><text fill="#000000" font-family="sans-serif" font-size="14" lengthAdjust="spacing" textLength="150.2676" x="234.6756" y="359.7723">Autocomplete Airport</text></g><!--entity UC8--><g class="entity" data-qualified-name="IntelliFly.UC8" data-source-line="16" id="ent0013"><ellipse cx="309.8093" cy="79.1179" fill="#F1F1F1" rx="71.4893" ry="16.6979" style="stroke:#181818;stroke-width:0.5;"/><text fill="#000000" font-family="sans-serif" font-size="14" lengthAdjust="spacing" textLength="110.1064" x="254.7561" y="83.7663">Sort Flight Data</text></g><!--entity UC9--><g class="entity" data-qualified-name="IntelliFly.UC9" data-source-line="17" id="ent0014"><ellipse cx="597.3758" cy="482.1152" fill="#F1F1F1" rx="71.7258" ry="16.7452" style="stroke:#181818;stroke-width:0.5;"/><text fill="#000000" font-family="sans-serif" font-size="14" lengthAdjust="spacing" textLength="110.6943" x="542.0286" y="486.7636">Undo Operation</text></g><!--entity UC10--><g class="entity" data-qualified-name="IntelliFly.UC10" data-source-line="18" id="ent0015"><ellipse cx="309.8053" cy="215.1231" fill="#F1F1F1" rx="88.4153" ry="20.0831" style="stroke:#181818;stroke-width:0.5;"/><text fill="#000000" font-family="sans-serif" font-size="14" lengthAdjust="spacing" textLength="150.1445" x="234.733" y="219.7715">Manage System Data</text></g><!--entity staff--><g class="entity" data-qualified-name="staff" data-source-line="4" id="ent0002"><ellipse cx="82.1713" cy="442.47" fill="#F1F1F1" rx="8" ry="8" style="stroke:#181818;stroke-width:0.5;"/><path d="M82.1713,450.47 L82.1713,477.47 M69.1713,458.47 L95.1713,458.47 M82.1713,477.47 L69.1713,492.47 M82.1713,477.47 L95.1713,492.47" fill="none" style="stroke:#181818;stroke-width:0.5;"/><text fill="#000000" font-family="sans-serif" font-size="14" lengthAdjust="spacing" textLength="85.1826" x="39.58" y="506.9651">Airport Staff</text></g><!--entity coordinator--><g class="entity" data-qualified-name="coordinator" data-source-line="5" id="ent0003"><ellipse cx="82.1662" cy="49.47" fill="#F1F1F1" rx="8" ry="8" style="stroke:#181818;stroke-width:0.5;"/><path d="M82.1662,57.47 L82.1662,84.47 M69.1662,65.47 L95.1662,65.47 M82.1662,84.47 L69.1662,99.47 M82.1662,84.47 L95.1662,99.47" fill="none" style="stroke:#181818;stroke-width:0.5;"/><text fill="#000000" font-family="sans-serif" font-size="14" lengthAdjust="spacing" textLength="126.2324" x="19.05" y="113.9651">Flight Coordinator</text></g><!--entity admin--><g class="entity" data-qualified-name="admin" data-source-line="6" id="ent0004"><ellipse cx="82.1694" cy="185.47" fill="#F1F1F1" rx="8" ry="8" style="stroke:#181818;stroke-width:0.5;"/><path d="M82.1694,193.47 L82.1694,220.47 M69.1694,201.47 L95.1694,201.47 M82.1694,220.47 L69.1694,235.47 M82.1694,220.47 L95.1694,235.47" fill="none" style="stroke:#181818;stroke-width:0.5;"/><text fill="#000000" font-family="sans-serif" font-size="14" lengthAdjust="spacing" textLength="152.3389" x="6" y="249.9651">System Administrator</text></g><!--link staff to UC1--><g class="link" data-entity-1="ent0002" data-entity-2="ent0006" data-link-type="dependency" data-source-line="21" id="lnk16"><path d="M125.08,463.57 C162.04,456.04 210.2011,446.2194 250.1011,438.0794" fill="none" id="staff-to-UC1" style="stroke:#181818;stroke-width:1;"/><polygon fill="#181818" points="255.98,436.88,246.3621,434.7598,251.0809,437.8795,247.9612,442.5983,255.98,436.88" style="stroke:#181818;stroke-width:1;"/></g><!--link staff to UC2--><g class="link" data-entity-1="ent0002" data-entity-2="ent0007" data-link-type="dependency" data-source-line="22" id="lnk17"><path d="M125.08,476.02 C160.13,479.28 204.5558,483.4145 243.7058,487.0545" fill="none" id="staff-to-UC2" style="stroke:#181818;stroke-width:1;"/><polygon fill="#181818" points="249.68,487.61,241.089,482.794,244.7015,487.1471,240.3483,490.7596,249.68,487.61" style="stroke:#181818;stroke-width:1;"/></g><!--link staff to UC3--><g class="link" data-entity-1="ent0002" data-entity-2="ent0008" data-link-type="dependency" data-source-line="23" id="lnk18"><path d="M102.04,433.61 C121.29,398.26 154.4,346.98 197.34,317.12 C214.69,305.04 230.7234,298.8805 250.4934,294.1705" fill="none" id="staff-to-UC3" style="stroke:#181818;stroke-width:1;"/><polygon fill="#181818" points="256.33,292.78,246.648,290.9747,251.4661,293.9388,248.502,298.7569,256.33,292.78" style="stroke:#181818;stroke-width:1;"/></g><!--link staff to UC5--><g class="link" data-entity-1="ent0002" data-entity-2="ent0010" data-link-type="dependency" data-source-line="24" id="lnk19"><path d="M125.19,497.47 C146.09,508.63 172.2,520.47 197.34,526.12 C284.47,545.68 309.95,539.3 398.28,526.12 C441.94,519.6 458.37,524.14 493.28,497.12 C513.47,481.48 507.04,467.82 523.28,448.12 C539.59,428.32 557.0404,412.6744 572.6504,399.8744" fill="none" id="staff-to-UC5" style="stroke:#181818;stroke-width:1;"/><polygon fill="#181818" points="577.29,396.07,567.7943,398.6836,573.4236,399.2404,572.8668,404.8698,577.29,396.07" style="stroke:#181818;stroke-width:1;"/></g><!--link staff to UC7--><g class="link" data-entity-1="ent0002" data-entity-2="ent0012" data-link-type="dependency" data-source-line="25" id="lnk20"><path d="M125.22,438.22 C146.02,422.64 172.04,404.84 197.34,392.12 C214.37,383.55 228.119,378.1497 245.969,372.3997" fill="none" id="staff-to-UC7" style="stroke:#181818;stroke-width:1;"/><polygon fill="#181818" points="251.68,370.56,241.887,369.5122,246.9208,372.0931,244.3399,377.1269,251.68,370.56" style="stroke:#181818;stroke-width:1;"/></g><!--link staff to UC9--><g class="link" data-entity-1="ent0002" data-entity-2="ent0014" data-link-type="dependency" data-source-line="26" id="lnk21"><path d="M106.05,510.72 C124.47,537.7 153.06,571.57 188.34,587.12 C312.36,641.76 368.3,639.55 493.28,587.12 C536.15,569.13 566.9158,528.6844 582.9958,503.8844" fill="none" id="staff-to-UC9" style="stroke:#181818;stroke-width:1;"/><polygon fill="#181818" points="586.26,498.85,578.0074,504.2254,583.5398,503.0453,584.7199,508.5777,586.26,498.85" style="stroke:#181818;stroke-width:1;"/></g><!--link coordinator to UC4--><g class="link" data-entity-1="ent0003" data-entity-2="ent0009" data-link-type="dependency" data-source-line="28" id="lnk22"><path d="M145.76,53.43 C211.89,30.48 317.57,6 398.28,45.12 C502.43,95.6 565.9585,224.8429 586.8285,273.1029" fill="none" id="coordinator-to-UC4" style="stroke:#181818;stroke-width:1;"/><polygon fill="#181818" points="589.21,278.61,589.3091,268.7616,587.2254,274.0207,581.9663,271.937,589.21,278.61" style="stroke:#181818;stroke-width:1;"/></g><!--link coordinator to UC6--><g class="link" data-entity-1="ent0003" data-entity-2="ent0011" data-link-type="dependency" data-source-line="29" id="lnk23"><path d="M145.65,97.84 C162.43,102.84 180.57,108.21 197.34,113.12 C221.69,120.24 243.3008,126.452 264.8308,132.602" fill="none" id="coordinator-to-UC6" style="stroke:#181818;stroke-width:1;"/><polygon fill="#181818" points="270.6,134.25,263.0448,127.9319,265.7923,132.8767,260.8475,135.6242,270.6,134.25" style="stroke:#181818;stroke-width:1;"/></g><!--link coordinator to UC8--><g class="link" data-entity-1="ent0003" data-entity-2="ent0013" data-link-type="dependency" data-source-line="30" id="lnk24"><path d="M145.72,79.12 C174.42,79.12 202.56,79.12 232.18,79.12" fill="none" id="coordinator-to-UC8" style="stroke:#181818;stroke-width:1;"/><polygon fill="#181818" points="238.18,79.12,229.18,75.12,233.18,79.12,229.18,83.12,238.18,79.12" style="stroke:#181818;stroke-width:1;"/></g><!--link admin to UC10--><g class="link" data-entity-1="ent0004" data-entity-2="ent0015" data-link-type="dependency" data-source-line="32" id="lnk25"><path d="M158.62,215.12 C178.6,215.12 194.35,215.12 214.94,215.12" fill="none" id="admin-to-UC10" style="stroke:#181818;stroke-width:1;"/><polygon fill="#181818" points="220.94,215.12,211.94,211.12,215.94,215.12,211.94,219.12,220.94,215.12" style="stroke:#181818;stroke-width:1;"/></g><!--link UC1 to UC4--><g class="link" data-entity-1="ent0006" data-entity-2="ent0009" data-link-type="dependency" data-source-line="34" id="lnk26"><path d="M349.88,412.27 C365.11,406.65 382.63,399.88 398.28,393.12 C458.74,366.98 522.0561,334.9469 560.5961,314.9169" fill="none" id="UC1-to-UC4" style="stroke:#181818;stroke-width:1;stroke-dasharray:7,7;"/><polygon fill="#181818" points="565.92,312.15,556.0895,312.7511,561.4834,314.4558,559.7788,319.8497,565.92,312.15" style="stroke:#181818;stroke-width:1;"/><text fill="#000000" font-family="sans-serif" font-size="13" lengthAdjust="spacing" textLength="63.0068" x="429.28" y="346.1869">&#171;include&#187;</text></g><!--link UC2 to UC9--><g class="link" data-entity-1="ent0007" data-entity-2="ent0014" data-link-type="dependency" data-source-line="35" id="lnk27"><path d="M373.48,490.7 C418.55,488.97 473.3644,486.851 520.0844,485.051" fill="none" id="UC2-to-UC9" style="stroke:#181818;stroke-width:1;stroke-dasharray:7,7;"/><polygon fill="#181818" points="526.08,484.82,516.9327,481.1695,521.0837,485.0125,517.2407,489.1635,526.08,484.82" style="stroke:#181818;stroke-width:1;"/><text fill="#000000" font-family="sans-serif" font-size="13" lengthAdjust="spacing" textLength="61.1851" x="430.28" y="483.1869">&#171;extend&#187;</text></g><!--link UC6 to UC5--><g class="link" data-entity-1="ent0011" data-entity-2="ent0010" data-link-type="dependency" data-source-line="36" id="lnk28"><path d="M351.78,155.09 C367.26,160.1 384.46,167.25 398.28,177.12 C470.03,228.33 458.44,271.39 523.28,331.12 C538.09,344.76 551.7955,354.3705 566.6155,363.5905" fill="none" id="UC6-to-UC5" style="stroke:#181818;stroke-width:1;stroke-dasharray:7,7;"/><polygon fill="#181818" points="571.71,366.76,566.1812,358.6094,567.4645,364.1188,561.9552,365.4021,571.71,366.76" style="stroke:#181818;stroke-width:1;"/><text fill="#000000" font-family="sans-serif" font-size="13" lengthAdjust="spacing" textLength="63.0068" x="429.28" y="201.1869">&#171;include&#187;</text></g><?plantuml-src RP9RQm8n48NVyoi6tnNlboA2M8G-z89YtuTar60sMP8iTYdzxyrkeqt0bsNFd2zpmamK7Jru0rQUpXw4jCIzD9gvYzGbMYoWH7x14-rzhGWQ6_L94MF8lR7GMKjR6kjXx_5ux00wSCtVpTwgjl7662kanb1h6VwlR-I-TfuAM8j2QkcylRFOL1YxHyEBzgIKtAeQlXb0vOYZet0L8U2Dhl2NsPuzR0OfiK7DIUN0C0K-vVsyY_ueYr3ASFG4kqfViOx8E4NsX9QVyun92dmerB0pbQVeJhE4oXjkYb9HI8d3ZTmiYsc67gVxZ1uZCq-PWnO6taiAimmxZSGY9LvHXzr2d7tIPz1dFuorguHkTzKECbN3J8qoDSdKB5CBnfBTn-BuGMtwe3OFhwvv3BSRzHaBN-ZrsYRm1Ckbr5nLWbQhu0oZisWT-lAaHMjCep79Z_m2?></g></svg>